M48
; DRILL file {KiCad 9.0.6} date 2026-06-04T15:37:12-0400
; FORMAT={-:-/ absolute / metric / decimal}
; #@! TF.CreationDate,2026-06-04T15:37:12-04:00
; #@! TF.GenerationSoftware,Kicad,Pcbnew,9.0.6
; #@! TF.FileFunction,MixedPlating,1,2
FMAT,2
METRIC
; #@! TA.AperFunction,Plated,PTH,ViaDrill
T1C0.300
; #@! TA.AperFunction,Plated,PTH,ComponentDrill
T2C0.600
; #@! TA.AperFunction,Plated,PTH,ComponentDrill
T3C0.750
; #@! TA.AperFunction,Plated,PTH,ComponentDrill
T4C1.000
; #@! TA.AperFunction,NonPlated,NPTH,ComponentDrill
T5C0.900
%
G90
G05
T1
X141.0Y-39.0
X141.0Y-43.0
X141.0Y-45.0
X143.0Y-44.0
X143.764Y-44.983
X144.0Y-39.0
X145.0Y-48.0
X145.72Y-46.355
X146.152Y-49.682
X147.0Y-39.0
X148.488Y-44.755
X149.174Y-43.902
X150.0Y-39.0
X151.638Y-47.092
X151.641Y-46.025
X153.0Y-39.0
X155.651Y-47.854
X162.0Y-39.0
X164.0Y-46.0
X164.0Y-48.0
X165.0Y-39.0
X167.0Y-47.0
X168.0Y-39.0
X169.0Y-46.0
X169.0Y-48.0
X171.0Y-39.0
X173.0Y-44.0
X173.076Y-44.856
X174.0Y-39.0
X176.733Y-43.84
X177.0Y-39.0
X180.0Y-39.0
X182.753Y-45.491
X184.226Y-44.31
X184.658Y-43.891
X185.014Y-47.752
X187.604Y-47.803
X187.674Y-40.862
X188.29Y-40.615
X189.535Y-43.942
X193.0Y-46.0
X194.0Y-39.0
X194.0Y-44.0
X194.005Y-45.364
X194.818Y-49.479
X196.0Y-48.0
X196.04Y-43.228
X197.46Y-44.856
X197.46Y-49.53
X197.612Y-45.72
T3
X191.276Y-45.38
X191.276Y-47.38
T4
X158.449Y-42.453
X158.449Y-44.993
T5
X192.29Y-39.667
X195.29Y-39.667
T2
G00X162.018Y-43.163
M15
G01X162.018Y-43.763
M16
G05
G00X162.018Y-46.963
M15
G01X162.018Y-47.563
M16
G05
G00X170.658Y-43.163
M15
G01X170.658Y-43.763
M16
G05
G00X170.658Y-46.963
M15
G01X170.658Y-47.563
M16
G05
M30
