%TF.GenerationSoftware,KiCad,Pcbnew,9.0.6*%
%TF.CreationDate,2026-06-01T16:05:54-04:00*%
%TF.ProjectId,pcbvr_left,70636276-725f-46c6-9566-742e6b696361,rev?*%
%TF.SameCoordinates,Original*%
%TF.FileFunction,Legend,Bot*%
%TF.FilePolarity,Positive*%
%FSLAX46Y46*%
G04 Gerber Fmt 4.6, Leading zero omitted, Abs format (unit mm)*
G04 Created by KiCad (PCBNEW 9.0.6) date 2026-06-01 16:05:54*
%MOMM*%
%LPD*%
G01*
G04 APERTURE LIST*
%ADD10C,0.100000*%
%ADD11C,0.300000*%
%ADD12C,0.000000*%
G04 APERTURE END LIST*
D10*
X186636934Y-43071504D02*
X186160744Y-43071504D01*
X186732172Y-43357219D02*
X186398839Y-42357219D01*
X186398839Y-42357219D02*
X186065506Y-43357219D01*
X185732172Y-43357219D02*
X185732172Y-42357219D01*
X183970268Y-42404838D02*
X184065506Y-42357219D01*
X184065506Y-42357219D02*
X184208363Y-42357219D01*
X184208363Y-42357219D02*
X184351220Y-42404838D01*
X184351220Y-42404838D02*
X184446458Y-42500076D01*
X184446458Y-42500076D02*
X184494077Y-42595314D01*
X184494077Y-42595314D02*
X184541696Y-42785790D01*
X184541696Y-42785790D02*
X184541696Y-42928647D01*
X184541696Y-42928647D02*
X184494077Y-43119123D01*
X184494077Y-43119123D02*
X184446458Y-43214361D01*
X184446458Y-43214361D02*
X184351220Y-43309600D01*
X184351220Y-43309600D02*
X184208363Y-43357219D01*
X184208363Y-43357219D02*
X184113125Y-43357219D01*
X184113125Y-43357219D02*
X183970268Y-43309600D01*
X183970268Y-43309600D02*
X183922649Y-43261980D01*
X183922649Y-43261980D02*
X183922649Y-42928647D01*
X183922649Y-42928647D02*
X184113125Y-42928647D01*
X183017887Y-43357219D02*
X183494077Y-43357219D01*
X183494077Y-43357219D02*
X183494077Y-42357219D01*
X182732172Y-43071504D02*
X182255982Y-43071504D01*
X182827410Y-43357219D02*
X182494077Y-42357219D01*
X182494077Y-42357219D02*
X182160744Y-43357219D01*
X181875029Y-43309600D02*
X181732172Y-43357219D01*
X181732172Y-43357219D02*
X181494077Y-43357219D01*
X181494077Y-43357219D02*
X181398839Y-43309600D01*
X181398839Y-43309600D02*
X181351220Y-43261980D01*
X181351220Y-43261980D02*
X181303601Y-43166742D01*
X181303601Y-43166742D02*
X181303601Y-43071504D01*
X181303601Y-43071504D02*
X181351220Y-42976266D01*
X181351220Y-42976266D02*
X181398839Y-42928647D01*
X181398839Y-42928647D02*
X181494077Y-42881028D01*
X181494077Y-42881028D02*
X181684553Y-42833409D01*
X181684553Y-42833409D02*
X181779791Y-42785790D01*
X181779791Y-42785790D02*
X181827410Y-42738171D01*
X181827410Y-42738171D02*
X181875029Y-42642933D01*
X181875029Y-42642933D02*
X181875029Y-42547695D01*
X181875029Y-42547695D02*
X181827410Y-42452457D01*
X181827410Y-42452457D02*
X181779791Y-42404838D01*
X181779791Y-42404838D02*
X181684553Y-42357219D01*
X181684553Y-42357219D02*
X181446458Y-42357219D01*
X181446458Y-42357219D02*
X181303601Y-42404838D01*
X180922648Y-43309600D02*
X180779791Y-43357219D01*
X180779791Y-43357219D02*
X180541696Y-43357219D01*
X180541696Y-43357219D02*
X180446458Y-43309600D01*
X180446458Y-43309600D02*
X180398839Y-43261980D01*
X180398839Y-43261980D02*
X180351220Y-43166742D01*
X180351220Y-43166742D02*
X180351220Y-43071504D01*
X180351220Y-43071504D02*
X180398839Y-42976266D01*
X180398839Y-42976266D02*
X180446458Y-42928647D01*
X180446458Y-42928647D02*
X180541696Y-42881028D01*
X180541696Y-42881028D02*
X180732172Y-42833409D01*
X180732172Y-42833409D02*
X180827410Y-42785790D01*
X180827410Y-42785790D02*
X180875029Y-42738171D01*
X180875029Y-42738171D02*
X180922648Y-42642933D01*
X180922648Y-42642933D02*
X180922648Y-42547695D01*
X180922648Y-42547695D02*
X180875029Y-42452457D01*
X180875029Y-42452457D02*
X180827410Y-42404838D01*
X180827410Y-42404838D02*
X180732172Y-42357219D01*
X180732172Y-42357219D02*
X180494077Y-42357219D01*
X180494077Y-42357219D02*
X180351220Y-42404838D01*
X179922648Y-42833409D02*
X179589315Y-42833409D01*
X179446458Y-43357219D02*
X179922648Y-43357219D01*
X179922648Y-43357219D02*
X179922648Y-42357219D01*
X179922648Y-42357219D02*
X179446458Y-42357219D01*
X179065505Y-43309600D02*
X178922648Y-43357219D01*
X178922648Y-43357219D02*
X178684553Y-43357219D01*
X178684553Y-43357219D02*
X178589315Y-43309600D01*
X178589315Y-43309600D02*
X178541696Y-43261980D01*
X178541696Y-43261980D02*
X178494077Y-43166742D01*
X178494077Y-43166742D02*
X178494077Y-43071504D01*
X178494077Y-43071504D02*
X178541696Y-42976266D01*
X178541696Y-42976266D02*
X178589315Y-42928647D01*
X178589315Y-42928647D02*
X178684553Y-42881028D01*
X178684553Y-42881028D02*
X178875029Y-42833409D01*
X178875029Y-42833409D02*
X178970267Y-42785790D01*
X178970267Y-42785790D02*
X179017886Y-42738171D01*
X179017886Y-42738171D02*
X179065505Y-42642933D01*
X179065505Y-42642933D02*
X179065505Y-42547695D01*
X179065505Y-42547695D02*
X179017886Y-42452457D01*
X179017886Y-42452457D02*
X178970267Y-42404838D01*
X178970267Y-42404838D02*
X178875029Y-42357219D01*
X178875029Y-42357219D02*
X178636934Y-42357219D01*
X178636934Y-42357219D02*
X178494077Y-42404838D01*
X177446457Y-42357219D02*
X177113124Y-43357219D01*
X177113124Y-43357219D02*
X176779791Y-42357219D01*
X176541695Y-42357219D02*
X175922648Y-42357219D01*
X175922648Y-42357219D02*
X176255981Y-42738171D01*
X176255981Y-42738171D02*
X176113124Y-42738171D01*
X176113124Y-42738171D02*
X176017886Y-42785790D01*
X176017886Y-42785790D02*
X175970267Y-42833409D01*
X175970267Y-42833409D02*
X175922648Y-42928647D01*
X175922648Y-42928647D02*
X175922648Y-43166742D01*
X175922648Y-43166742D02*
X175970267Y-43261980D01*
X175970267Y-43261980D02*
X176017886Y-43309600D01*
X176017886Y-43309600D02*
X176113124Y-43357219D01*
X176113124Y-43357219D02*
X176398838Y-43357219D01*
X176398838Y-43357219D02*
X176494076Y-43309600D01*
X176494076Y-43309600D02*
X176541695Y-43261980D01*
D11*
X174827717Y-40928200D02*
X174613432Y-40999628D01*
X174613432Y-40999628D02*
X174256289Y-40999628D01*
X174256289Y-40999628D02*
X174113432Y-40928200D01*
X174113432Y-40928200D02*
X174042003Y-40856771D01*
X174042003Y-40856771D02*
X173970574Y-40713914D01*
X173970574Y-40713914D02*
X173970574Y-40571057D01*
X173970574Y-40571057D02*
X174042003Y-40428200D01*
X174042003Y-40428200D02*
X174113432Y-40356771D01*
X174113432Y-40356771D02*
X174256289Y-40285342D01*
X174256289Y-40285342D02*
X174542003Y-40213914D01*
X174542003Y-40213914D02*
X174684860Y-40142485D01*
X174684860Y-40142485D02*
X174756289Y-40071057D01*
X174756289Y-40071057D02*
X174827717Y-39928200D01*
X174827717Y-39928200D02*
X174827717Y-39785342D01*
X174827717Y-39785342D02*
X174756289Y-39642485D01*
X174756289Y-39642485D02*
X174684860Y-39571057D01*
X174684860Y-39571057D02*
X174542003Y-39499628D01*
X174542003Y-39499628D02*
X174184860Y-39499628D01*
X174184860Y-39499628D02*
X173970574Y-39571057D01*
X173327718Y-40999628D02*
X173327718Y-39499628D01*
X172613432Y-40999628D02*
X172613432Y-39499628D01*
X172613432Y-39499628D02*
X171756289Y-40999628D01*
X171756289Y-40999628D02*
X171756289Y-39499628D01*
X170184860Y-40999628D02*
X170684860Y-40285342D01*
X171042003Y-40999628D02*
X171042003Y-39499628D01*
X171042003Y-39499628D02*
X170470574Y-39499628D01*
X170470574Y-39499628D02*
X170327717Y-39571057D01*
X170327717Y-39571057D02*
X170256288Y-39642485D01*
X170256288Y-39642485D02*
X170184860Y-39785342D01*
X170184860Y-39785342D02*
X170184860Y-39999628D01*
X170184860Y-39999628D02*
X170256288Y-40142485D01*
X170256288Y-40142485D02*
X170327717Y-40213914D01*
X170327717Y-40213914D02*
X170470574Y-40285342D01*
X170470574Y-40285342D02*
X171042003Y-40285342D01*
X168756288Y-39571057D02*
X168899146Y-39499628D01*
X168899146Y-39499628D02*
X169113431Y-39499628D01*
X169113431Y-39499628D02*
X169327717Y-39571057D01*
X169327717Y-39571057D02*
X169470574Y-39713914D01*
X169470574Y-39713914D02*
X169542003Y-39856771D01*
X169542003Y-39856771D02*
X169613431Y-40142485D01*
X169613431Y-40142485D02*
X169613431Y-40356771D01*
X169613431Y-40356771D02*
X169542003Y-40642485D01*
X169542003Y-40642485D02*
X169470574Y-40785342D01*
X169470574Y-40785342D02*
X169327717Y-40928200D01*
X169327717Y-40928200D02*
X169113431Y-40999628D01*
X169113431Y-40999628D02*
X168970574Y-40999628D01*
X168970574Y-40999628D02*
X168756288Y-40928200D01*
X168756288Y-40928200D02*
X168684860Y-40856771D01*
X168684860Y-40856771D02*
X168684860Y-40356771D01*
X168684860Y-40356771D02*
X168970574Y-40356771D01*
X166184860Y-40999628D02*
X166899146Y-40999628D01*
X166899146Y-40999628D02*
X166899146Y-39499628D01*
X165756288Y-40571057D02*
X165042003Y-40571057D01*
X165899145Y-40999628D02*
X165399145Y-39499628D01*
X165399145Y-39499628D02*
X164899145Y-40999628D01*
X163899146Y-40213914D02*
X163684860Y-40285342D01*
X163684860Y-40285342D02*
X163613431Y-40356771D01*
X163613431Y-40356771D02*
X163542003Y-40499628D01*
X163542003Y-40499628D02*
X163542003Y-40713914D01*
X163542003Y-40713914D02*
X163613431Y-40856771D01*
X163613431Y-40856771D02*
X163684860Y-40928200D01*
X163684860Y-40928200D02*
X163827717Y-40999628D01*
X163827717Y-40999628D02*
X164399146Y-40999628D01*
X164399146Y-40999628D02*
X164399146Y-39499628D01*
X164399146Y-39499628D02*
X163899146Y-39499628D01*
X163899146Y-39499628D02*
X163756289Y-39571057D01*
X163756289Y-39571057D02*
X163684860Y-39642485D01*
X163684860Y-39642485D02*
X163613431Y-39785342D01*
X163613431Y-39785342D02*
X163613431Y-39928200D01*
X163613431Y-39928200D02*
X163684860Y-40071057D01*
X163684860Y-40071057D02*
X163756289Y-40142485D01*
X163756289Y-40142485D02*
X163899146Y-40213914D01*
X163899146Y-40213914D02*
X164399146Y-40213914D01*
D12*
%TO.C,G\u002A\u002A\u002A*%
G36*
X179364230Y-40591181D02*
G01*
X179365131Y-40591565D01*
X179384468Y-40604701D01*
X179396086Y-40623983D01*
X179399963Y-40649375D01*
X179399840Y-40653655D01*
X179394297Y-40675886D01*
X179381031Y-40692436D01*
X179360748Y-40702348D01*
X179358310Y-40702936D01*
X179334880Y-40702986D01*
X179309389Y-40693574D01*
X179304303Y-40690237D01*
X179292543Y-40675687D01*
X179286035Y-40656522D01*
X179285054Y-40635710D01*
X179289877Y-40616218D01*
X179300780Y-40601014D01*
X179317678Y-40590680D01*
X179340677Y-40586303D01*
X179364230Y-40591181D01*
G37*
G36*
X181095434Y-40589629D02*
G01*
X181111623Y-40591649D01*
X181124902Y-40595840D01*
X181132265Y-40600701D01*
X181145744Y-40615370D01*
X181155706Y-40633396D01*
X181159583Y-40650720D01*
X181158426Y-40660266D01*
X181151746Y-40677991D01*
X181141088Y-40693580D01*
X181128721Y-40703172D01*
X181125925Y-40704117D01*
X181112213Y-40706128D01*
X181096069Y-40706008D01*
X181081624Y-40703222D01*
X181061976Y-40692307D01*
X181048669Y-40674131D01*
X181042312Y-40649337D01*
X181041523Y-40639487D01*
X181042235Y-40627504D01*
X181046963Y-40618157D01*
X181057307Y-40606924D01*
X181067489Y-40597740D01*
X181079552Y-40591266D01*
X181093708Y-40589598D01*
X181095434Y-40589629D01*
G37*
G36*
X179317283Y-40768960D02*
G01*
X179333050Y-40775321D01*
X179352516Y-40785260D01*
X179373892Y-40797632D01*
X179395391Y-40811291D01*
X179415224Y-40825091D01*
X179431604Y-40837888D01*
X179442744Y-40848535D01*
X179446854Y-40855887D01*
X179446252Y-40860565D01*
X179442581Y-40864053D01*
X179433559Y-40865590D01*
X179416931Y-40865934D01*
X179387007Y-40865934D01*
X179388549Y-40991291D01*
X179388694Y-41002950D01*
X179389258Y-41041426D01*
X179390073Y-41071487D01*
X179391438Y-41094287D01*
X179393652Y-41110978D01*
X179397014Y-41122714D01*
X179401822Y-41130648D01*
X179408375Y-41135932D01*
X179416973Y-41139721D01*
X179427914Y-41143167D01*
X179436473Y-41146156D01*
X179444663Y-41151913D01*
X179446854Y-41160400D01*
X179446854Y-41171958D01*
X179338265Y-41171958D01*
X179229676Y-41171958D01*
X179229676Y-41159809D01*
X179230533Y-41153303D01*
X179235955Y-41147162D01*
X179248635Y-41142554D01*
X179249604Y-41142295D01*
X179258122Y-41139984D01*
X179265060Y-41137404D01*
X179270602Y-41133594D01*
X179274930Y-41127595D01*
X179278229Y-41118447D01*
X179280683Y-41105190D01*
X179282475Y-41086864D01*
X179283789Y-41062510D01*
X179284808Y-41031167D01*
X179285717Y-40991875D01*
X179286699Y-40943674D01*
X179290296Y-40767217D01*
X179308467Y-40767217D01*
X179317283Y-40768960D01*
G37*
G36*
X181067565Y-40772155D02*
G01*
X181077146Y-40773201D01*
X181088030Y-40776729D01*
X181101894Y-40783558D01*
X181120416Y-40794510D01*
X181145274Y-40810406D01*
X181163612Y-40822557D01*
X181184890Y-40837654D01*
X181198047Y-40848905D01*
X181203393Y-40856882D01*
X181201235Y-40862162D01*
X181191882Y-40865317D01*
X181175643Y-40866922D01*
X181147262Y-40868402D01*
X181147262Y-40994991D01*
X181147264Y-41006962D01*
X181147378Y-41046032D01*
X181147871Y-41076621D01*
X181149019Y-41099827D01*
X181151097Y-41116748D01*
X181154382Y-41128483D01*
X181159150Y-41136129D01*
X181165677Y-41140784D01*
X181174240Y-41143547D01*
X181185114Y-41145517D01*
X181197480Y-41148361D01*
X181202859Y-41153241D01*
X181204025Y-41162717D01*
X181204025Y-41176894D01*
X181095435Y-41176894D01*
X180986846Y-41176894D01*
X180986846Y-41162087D01*
X180986968Y-41157904D01*
X180989585Y-41149503D01*
X180996963Y-41147279D01*
X181003265Y-41146580D01*
X181017720Y-41141548D01*
X181030703Y-41133551D01*
X181038075Y-41124846D01*
X181038613Y-41121636D01*
X181039428Y-41109309D01*
X181040127Y-41089500D01*
X181040674Y-41063694D01*
X181041031Y-41033377D01*
X181041163Y-41000033D01*
X181041183Y-40987413D01*
X181041428Y-40949939D01*
X181041915Y-40912859D01*
X181042599Y-40878544D01*
X181043438Y-40849361D01*
X181044385Y-40827681D01*
X181047585Y-40772153D01*
X181067100Y-40772153D01*
X181067565Y-40772155D01*
G37*
G36*
X178747702Y-39757577D02*
G01*
X178759998Y-39764455D01*
X178777749Y-39775147D01*
X178799521Y-39788788D01*
X178823880Y-39804512D01*
X178829403Y-39808132D01*
X178855167Y-39825238D01*
X178873821Y-39838189D01*
X178886447Y-39847873D01*
X178894126Y-39855179D01*
X178897941Y-39860995D01*
X178898972Y-39866210D01*
X178898971Y-39866820D01*
X178898253Y-39873518D01*
X178894625Y-39877085D01*
X178885766Y-39878505D01*
X178869357Y-39878760D01*
X178839742Y-39878760D01*
X178839734Y-40025602D01*
X178839731Y-40036050D01*
X178839647Y-40076672D01*
X178839401Y-40108844D01*
X178838931Y-40133725D01*
X178838178Y-40152476D01*
X178837078Y-40166256D01*
X178835572Y-40176225D01*
X178833599Y-40183543D01*
X178831096Y-40189369D01*
X178824457Y-40200140D01*
X178805054Y-40218499D01*
X178779905Y-40229196D01*
X178773824Y-40230534D01*
X178752261Y-40233191D01*
X178729881Y-40231953D01*
X178702616Y-40226687D01*
X178686172Y-40222255D01*
X178652764Y-40209453D01*
X178625900Y-40193607D01*
X178622754Y-40191001D01*
X178619493Y-40184360D01*
X178622654Y-40174216D01*
X178623962Y-40171407D01*
X178628262Y-40165123D01*
X178634565Y-40164308D01*
X178646464Y-40168030D01*
X178651053Y-40169464D01*
X178669323Y-40173124D01*
X178688188Y-40174695D01*
X178700143Y-40174276D01*
X178713309Y-40170852D01*
X178723973Y-40162797D01*
X178736088Y-40150681D01*
X178736088Y-40014721D01*
X178736088Y-39878760D01*
X178684262Y-39878760D01*
X178632435Y-39878760D01*
X178632435Y-39856548D01*
X178632435Y-39834337D01*
X178684262Y-39834337D01*
X178736088Y-39834337D01*
X178736088Y-39794850D01*
X178736143Y-39786534D01*
X178736993Y-39768391D01*
X178739025Y-39758413D01*
X178742438Y-39755363D01*
X178747702Y-39757577D01*
G37*
G36*
X179048545Y-40705399D02*
G01*
X179060839Y-40712445D01*
X179078561Y-40723328D01*
X179100297Y-40737178D01*
X179124633Y-40753125D01*
X179146635Y-40767860D01*
X179168550Y-40783035D01*
X179183845Y-40794476D01*
X179193524Y-40803002D01*
X179198594Y-40809433D01*
X179200060Y-40814588D01*
X179199267Y-40820800D01*
X179195363Y-40824437D01*
X179186096Y-40826339D01*
X179169211Y-40827446D01*
X179138362Y-40828915D01*
X179135894Y-40981927D01*
X179135590Y-41000327D01*
X179134846Y-41040283D01*
X179134074Y-41071896D01*
X179133202Y-41096262D01*
X179132156Y-41114475D01*
X179130861Y-41127630D01*
X179129246Y-41136822D01*
X179127235Y-41143146D01*
X179124756Y-41147696D01*
X179119225Y-41154687D01*
X179101416Y-41168001D01*
X179076067Y-41176882D01*
X179075731Y-41176961D01*
X179061212Y-41179815D01*
X179049516Y-41181239D01*
X179035633Y-41180370D01*
X179013294Y-41176171D01*
X178988246Y-41169406D01*
X178963891Y-41161017D01*
X178943634Y-41151944D01*
X178937686Y-41148758D01*
X178924803Y-41141338D01*
X178918616Y-41135897D01*
X178917556Y-41130528D01*
X178920052Y-41123326D01*
X178924054Y-41113979D01*
X178926074Y-41109248D01*
X178926833Y-41109222D01*
X178933957Y-41111140D01*
X178946052Y-41115202D01*
X178951711Y-41117088D01*
X178979016Y-41122279D01*
X179002572Y-41120117D01*
X179020860Y-41110693D01*
X179034709Y-41098787D01*
X179034709Y-40963851D01*
X179034709Y-40828915D01*
X178981648Y-40827514D01*
X178928587Y-40826113D01*
X178928587Y-40804069D01*
X178928587Y-40782024D01*
X178982882Y-40782024D01*
X179037177Y-40782024D01*
X179037177Y-40742537D01*
X179037186Y-40739156D01*
X179037906Y-40718538D01*
X179039865Y-40706782D01*
X179043191Y-40703050D01*
X179048545Y-40705399D01*
G37*
G36*
X180010129Y-40769090D02*
G01*
X180025489Y-40775605D01*
X180044593Y-40785679D01*
X180065657Y-40798153D01*
X180086895Y-40811865D01*
X180106521Y-40825655D01*
X180122750Y-40838362D01*
X180133797Y-40848826D01*
X180137876Y-40855887D01*
X180137569Y-40859558D01*
X180134562Y-40863680D01*
X180126399Y-40865516D01*
X180110729Y-40865934D01*
X180083581Y-40865934D01*
X180083581Y-40993407D01*
X180083590Y-41022919D01*
X180083678Y-41055129D01*
X180083946Y-41079584D01*
X180084494Y-41097498D01*
X180085422Y-41110088D01*
X180086829Y-41118571D01*
X180088815Y-41124162D01*
X180091480Y-41128078D01*
X180094924Y-41131535D01*
X180106867Y-41139623D01*
X180122072Y-41145352D01*
X180127120Y-41146547D01*
X180135628Y-41151346D01*
X180137876Y-41160236D01*
X180137876Y-41171958D01*
X180026819Y-41171958D01*
X179915762Y-41171958D01*
X179915762Y-41160168D01*
X179916300Y-41154820D01*
X179921069Y-41148711D01*
X179933018Y-41145140D01*
X179933069Y-41145131D01*
X179949228Y-41139407D01*
X179963867Y-41130220D01*
X179977460Y-41118537D01*
X179978958Y-41012937D01*
X179980457Y-40907338D01*
X179960041Y-40876764D01*
X179948018Y-40859792D01*
X179938248Y-40848873D01*
X179932470Y-40846712D01*
X179930569Y-40853216D01*
X179930569Y-40853329D01*
X179926499Y-40864252D01*
X179916500Y-40876364D01*
X179903555Y-40886734D01*
X179890653Y-40892427D01*
X179889030Y-40892727D01*
X179868130Y-40891911D01*
X179850434Y-40882868D01*
X179837104Y-40866947D01*
X179829301Y-40845499D01*
X179828189Y-40819873D01*
X179831278Y-40803433D01*
X179840876Y-40785771D01*
X179856903Y-40775486D01*
X179879818Y-40772153D01*
X179887313Y-40772509D01*
X179914428Y-40779958D01*
X179940003Y-40796776D01*
X179963417Y-40822588D01*
X179982396Y-40848479D01*
X179983830Y-40807848D01*
X179985263Y-40767217D01*
X180001461Y-40767217D01*
X180010129Y-40769090D01*
G37*
G36*
X180734140Y-39763316D02*
G01*
X180746563Y-39770144D01*
X180764447Y-39780754D01*
X180786254Y-39794231D01*
X180810448Y-39809658D01*
X180819675Y-39815641D01*
X180843713Y-39831464D01*
X180860850Y-39843332D01*
X180872219Y-39852188D01*
X180878954Y-39858976D01*
X180882188Y-39864640D01*
X180883053Y-39870122D01*
X180883064Y-39871612D01*
X180882401Y-39878497D01*
X180878808Y-39882096D01*
X180869971Y-39883473D01*
X180853578Y-39883696D01*
X180823962Y-39883696D01*
X180823962Y-40028258D01*
X180823962Y-40030883D01*
X180823932Y-40072032D01*
X180823791Y-40104600D01*
X180823458Y-40129807D01*
X180822850Y-40148875D01*
X180821888Y-40163023D01*
X180820488Y-40173474D01*
X180818571Y-40181447D01*
X180816054Y-40188163D01*
X180812857Y-40194844D01*
X180801855Y-40211553D01*
X180784475Y-40225497D01*
X180771690Y-40230285D01*
X180744843Y-40234285D01*
X180713719Y-40233349D01*
X180680806Y-40227797D01*
X180648595Y-40217953D01*
X180619574Y-40204139D01*
X180613774Y-40200592D01*
X180604502Y-40192974D01*
X180602562Y-40185396D01*
X180606711Y-40175049D01*
X180608627Y-40171839D01*
X180612938Y-40168626D01*
X180620613Y-40169058D01*
X180634643Y-40172905D01*
X180641281Y-40174748D01*
X180658458Y-40178398D01*
X180671980Y-40179848D01*
X180678974Y-40179299D01*
X180695336Y-40174626D01*
X180709344Y-40166712D01*
X180717243Y-40157415D01*
X180718048Y-40150645D01*
X180718782Y-40135338D01*
X180719405Y-40112899D01*
X180719887Y-40084704D01*
X180720199Y-40052132D01*
X180720309Y-40016560D01*
X180720309Y-39883696D01*
X180668482Y-39883696D01*
X180616656Y-39883696D01*
X180616656Y-39861484D01*
X180616656Y-39839273D01*
X180668482Y-39839273D01*
X180720309Y-39839273D01*
X180720309Y-39799442D01*
X180720334Y-39790964D01*
X180720776Y-39774421D01*
X180722105Y-39765185D01*
X180724752Y-39761395D01*
X180729146Y-39761189D01*
X180734140Y-39763316D01*
G37*
G36*
X181701418Y-40027597D02*
G01*
X181698423Y-40072479D01*
X181693906Y-40094681D01*
X181684132Y-40124851D01*
X181669989Y-40150614D01*
X181649934Y-40175243D01*
X181623972Y-40198472D01*
X181588949Y-40218660D01*
X181547552Y-40232045D01*
X181546446Y-40232294D01*
X181501446Y-40237736D01*
X181457541Y-40234390D01*
X181415955Y-40222867D01*
X181377911Y-40203776D01*
X181344634Y-40177728D01*
X181317345Y-40145334D01*
X181297270Y-40107203D01*
X181295154Y-40101250D01*
X181289135Y-40074678D01*
X181288048Y-40063855D01*
X181389314Y-40063855D01*
X181389328Y-40088881D01*
X181389782Y-40108201D01*
X181391024Y-40121915D01*
X181393398Y-40132227D01*
X181397244Y-40141346D01*
X181402906Y-40151475D01*
X181417762Y-40171033D01*
X181434990Y-40184201D01*
X181439245Y-40186275D01*
X181469812Y-40196193D01*
X181498322Y-40196770D01*
X181524252Y-40188380D01*
X181547079Y-40171395D01*
X181566279Y-40146185D01*
X181581332Y-40113125D01*
X181591714Y-40072586D01*
X181595792Y-40045798D01*
X181598877Y-39999438D01*
X181595814Y-39959844D01*
X181586692Y-39927276D01*
X181571600Y-39901990D01*
X181550625Y-39884244D01*
X181523856Y-39874296D01*
X181506452Y-39871908D01*
X181476314Y-39874101D01*
X181450423Y-39885015D01*
X181428912Y-39904462D01*
X181411913Y-39932257D01*
X181399558Y-39968211D01*
X181391981Y-40012140D01*
X181389314Y-40063855D01*
X181288048Y-40063855D01*
X181286009Y-40043565D01*
X181285839Y-40011387D01*
X181288685Y-39981618D01*
X181294610Y-39957734D01*
X181311450Y-39923205D01*
X181337718Y-39889408D01*
X181370767Y-39862556D01*
X181409988Y-39843254D01*
X181433709Y-39836977D01*
X181467172Y-39832947D01*
X181502804Y-39832637D01*
X181536834Y-39836051D01*
X181565494Y-39843188D01*
X181591251Y-39854485D01*
X181627854Y-39878617D01*
X181657807Y-39909089D01*
X181680476Y-39944806D01*
X181695224Y-39984674D01*
X181697355Y-39999438D01*
X181701418Y-40027597D01*
G37*
G36*
X178069080Y-39820086D02*
G01*
X178080067Y-39823355D01*
X178094423Y-39830220D01*
X178113670Y-39841442D01*
X178139328Y-39857782D01*
X178155451Y-39868455D01*
X178177734Y-39884182D01*
X178191768Y-39895962D01*
X178197828Y-39904280D01*
X178196191Y-39909620D01*
X178187134Y-39912469D01*
X178170931Y-39913311D01*
X178143784Y-39913311D01*
X178143784Y-40043346D01*
X178143781Y-40066444D01*
X178143872Y-40102668D01*
X178144316Y-40130763D01*
X178145387Y-40151862D01*
X178147356Y-40167102D01*
X178150497Y-40177616D01*
X178155081Y-40184541D01*
X178161381Y-40189010D01*
X178169669Y-40192160D01*
X178180219Y-40195124D01*
X178188180Y-40197722D01*
X178196035Y-40203281D01*
X178198078Y-40212163D01*
X178198078Y-40224271D01*
X178086693Y-40224271D01*
X177975308Y-40224271D01*
X177976870Y-40210873D01*
X177977260Y-40208229D01*
X177981905Y-40198990D01*
X177993239Y-40194454D01*
X178013979Y-40187895D01*
X178027349Y-40177322D01*
X178034951Y-40161280D01*
X178036480Y-40151535D01*
X178037923Y-40133324D01*
X178039067Y-40109010D01*
X178039824Y-40080545D01*
X178040103Y-40049884D01*
X178040130Y-39956939D01*
X178022679Y-39930648D01*
X178021711Y-39929190D01*
X178009364Y-39911274D01*
X178000844Y-39901141D01*
X177994968Y-39898153D01*
X177990557Y-39901671D01*
X177986430Y-39911058D01*
X177978327Y-39925340D01*
X177963031Y-39937441D01*
X177944310Y-39942431D01*
X177924561Y-39939779D01*
X177906180Y-39928948D01*
X177904460Y-39927385D01*
X177895479Y-39917160D01*
X177890686Y-39905342D01*
X177888283Y-39887800D01*
X177887918Y-39869726D01*
X177892481Y-39848068D01*
X177903605Y-39833045D01*
X177921698Y-39823873D01*
X177931815Y-39821649D01*
X177957096Y-39823042D01*
X177982586Y-39834272D01*
X178008248Y-39855320D01*
X178034042Y-39886164D01*
X178044753Y-39900971D01*
X178044910Y-39860250D01*
X178045066Y-39819529D01*
X178062867Y-39819529D01*
X178069080Y-39820086D01*
G37*
G36*
X180617890Y-40783136D02*
G01*
X180641723Y-40783566D01*
X180664867Y-40784168D01*
X180680693Y-40785018D01*
X180690641Y-40786327D01*
X180696151Y-40788307D01*
X180698661Y-40791169D01*
X180699613Y-40795123D01*
X180699768Y-40799276D01*
X180695809Y-40806036D01*
X180684168Y-40811350D01*
X180672964Y-40815783D01*
X180661507Y-40823452D01*
X180654536Y-40833881D01*
X180652074Y-40848062D01*
X180654146Y-40866990D01*
X180660776Y-40891658D01*
X180671987Y-40923058D01*
X180687804Y-40962184D01*
X180696770Y-40983425D01*
X180706930Y-41007009D01*
X180715408Y-41026154D01*
X180721511Y-41039297D01*
X180724544Y-41044875D01*
X180725014Y-41044784D01*
X180728869Y-41039129D01*
X180735681Y-41026419D01*
X180744734Y-41008210D01*
X180755311Y-40986060D01*
X180766697Y-40961525D01*
X180778175Y-40936162D01*
X180789030Y-40911528D01*
X180798545Y-40889180D01*
X180806005Y-40870674D01*
X180810694Y-40857567D01*
X180812539Y-40848277D01*
X180809552Y-40832043D01*
X180798190Y-40820098D01*
X180779192Y-40813480D01*
X180777044Y-40813128D01*
X180765462Y-40810336D01*
X180760876Y-40805824D01*
X180760767Y-40797393D01*
X180762264Y-40784492D01*
X180869619Y-40783162D01*
X180976974Y-40781832D01*
X180976974Y-40795943D01*
X180974659Y-40807289D01*
X180965143Y-40815446D01*
X180962929Y-40816519D01*
X180957851Y-40819649D01*
X180952654Y-40824159D01*
X180947009Y-40830683D01*
X180940585Y-40839857D01*
X180933055Y-40852314D01*
X180924089Y-40868689D01*
X180913357Y-40889616D01*
X180900531Y-40915730D01*
X180885281Y-40947665D01*
X180867277Y-40986056D01*
X180846192Y-41031537D01*
X180821695Y-41084743D01*
X180793457Y-41146309D01*
X180779202Y-41177421D01*
X180756427Y-41175924D01*
X180733653Y-41174426D01*
X180660026Y-41011588D01*
X180646372Y-40981468D01*
X180627047Y-40939269D01*
X180610918Y-40904807D01*
X180597533Y-40877263D01*
X180586440Y-40855819D01*
X180577186Y-40839657D01*
X180569321Y-40827957D01*
X180562392Y-40819903D01*
X180555948Y-40814675D01*
X180549536Y-40811455D01*
X180541390Y-40806141D01*
X180537682Y-40794364D01*
X180537682Y-40781780D01*
X180617890Y-40783136D01*
G37*
G36*
X181095843Y-39825826D02*
G01*
X181111043Y-39831775D01*
X181130084Y-39841394D01*
X181151158Y-39853522D01*
X181172457Y-39867001D01*
X181192173Y-39880672D01*
X181208498Y-39893377D01*
X181219624Y-39903955D01*
X181223743Y-39911249D01*
X181223346Y-39915831D01*
X181220290Y-39919321D01*
X181212171Y-39920235D01*
X181196621Y-39919276D01*
X181169473Y-39917024D01*
X181169473Y-40044870D01*
X181169476Y-40057880D01*
X181169586Y-40096910D01*
X181170048Y-40127510D01*
X181171112Y-40150799D01*
X181173030Y-40167895D01*
X181176052Y-40179918D01*
X181180430Y-40187985D01*
X181186414Y-40193215D01*
X181194255Y-40196728D01*
X181204205Y-40199640D01*
X181214892Y-40203143D01*
X181221976Y-40208556D01*
X181223768Y-40217057D01*
X181223768Y-40229207D01*
X181112711Y-40229207D01*
X181001654Y-40229207D01*
X181001654Y-40217154D01*
X181001680Y-40215748D01*
X181003725Y-40208438D01*
X181010735Y-40203338D01*
X181025099Y-40198551D01*
X181026354Y-40198197D01*
X181038535Y-40194045D01*
X181047926Y-40188590D01*
X181054886Y-40180608D01*
X181059776Y-40168877D01*
X181062953Y-40152172D01*
X181064779Y-40129270D01*
X181065612Y-40098947D01*
X181065812Y-40059979D01*
X181065815Y-40052162D01*
X181065774Y-40019883D01*
X181065375Y-39995411D01*
X181064244Y-39977034D01*
X181062009Y-39963042D01*
X181058295Y-39951724D01*
X181052731Y-39941370D01*
X181044941Y-39930269D01*
X181034554Y-39916709D01*
X181020087Y-39897896D01*
X181011290Y-39917545D01*
X181010860Y-39918495D01*
X180999871Y-39935889D01*
X180985420Y-39945138D01*
X180965037Y-39947862D01*
X180949019Y-39944969D01*
X180931764Y-39933788D01*
X180926615Y-39928924D01*
X180919579Y-39919597D01*
X180915840Y-39907887D01*
X180913866Y-39890051D01*
X180913108Y-39875899D01*
X180914004Y-39863644D01*
X180917917Y-39854464D01*
X180925838Y-39844590D01*
X180934602Y-39836444D01*
X180954303Y-39827032D01*
X180976270Y-39826398D01*
X180999533Y-39834301D01*
X181023124Y-39850496D01*
X181046077Y-39874743D01*
X181068288Y-39902809D01*
X181069722Y-39863637D01*
X181071155Y-39824465D01*
X181088361Y-39824465D01*
X181095843Y-39825826D01*
G37*
G36*
X180523493Y-40936611D02*
G01*
X180527810Y-40982856D01*
X180527793Y-40986013D01*
X180523234Y-41032635D01*
X180510773Y-41073696D01*
X180490672Y-41108841D01*
X180463191Y-41137712D01*
X180428593Y-41159952D01*
X180387138Y-41175205D01*
X180370595Y-41178103D01*
X180345975Y-41179918D01*
X180319136Y-41179868D01*
X180293387Y-41177472D01*
X180254033Y-41167327D01*
X180220800Y-41149647D01*
X180193947Y-41124546D01*
X180175721Y-41102304D01*
X180185773Y-41092252D01*
X180195825Y-41082200D01*
X180218487Y-41099498D01*
X180229488Y-41107301D01*
X180249649Y-41117582D01*
X180271800Y-41122711D01*
X180299659Y-41123804D01*
X180308582Y-41123320D01*
X180340535Y-41115653D01*
X180368891Y-41099119D01*
X180392992Y-41074202D01*
X180412178Y-41041383D01*
X180416922Y-41031106D01*
X180422011Y-41019634D01*
X180424705Y-41010485D01*
X180424146Y-41002938D01*
X180419477Y-40996276D01*
X180409840Y-40989778D01*
X180394378Y-40982725D01*
X180372232Y-40974399D01*
X180342546Y-40964079D01*
X180304462Y-40951047D01*
X180280195Y-40942727D01*
X180247380Y-40931402D01*
X180222381Y-40922345D01*
X180204288Y-40914876D01*
X180192193Y-40908314D01*
X180185185Y-40901980D01*
X180183932Y-40898974D01*
X180280564Y-40898974D01*
X180353813Y-40924409D01*
X180368786Y-40929579D01*
X180392435Y-40937610D01*
X180411847Y-40944036D01*
X180425331Y-40948299D01*
X180431194Y-40949844D01*
X180431480Y-40949756D01*
X180433057Y-40944107D01*
X180433601Y-40931395D01*
X180432990Y-40914059D01*
X180428909Y-40883042D01*
X180420277Y-40858008D01*
X180406531Y-40839553D01*
X180386985Y-40826373D01*
X180377026Y-40822283D01*
X180351981Y-40818313D01*
X180328814Y-40823200D01*
X180308842Y-40836212D01*
X180293380Y-40856618D01*
X180283747Y-40883688D01*
X180280564Y-40898974D01*
X180183932Y-40898974D01*
X180182355Y-40895192D01*
X180182794Y-40887270D01*
X180185593Y-40877534D01*
X180189840Y-40865303D01*
X180200671Y-40841877D01*
X180222210Y-40815564D01*
X180252114Y-40794407D01*
X180263645Y-40789018D01*
X180294532Y-40780408D01*
X180329188Y-40777017D01*
X180364305Y-40779026D01*
X180396572Y-40786611D01*
X180429079Y-40801356D01*
X180463150Y-40826060D01*
X180490611Y-40857388D01*
X180510909Y-40894513D01*
X180521934Y-40931395D01*
X180523493Y-40936611D01*
G37*
G36*
X178587353Y-40019078D02*
G01*
X178586396Y-40060440D01*
X178578332Y-40100477D01*
X178563074Y-40137442D01*
X178540534Y-40169587D01*
X178530668Y-40179517D01*
X178500850Y-40201650D01*
X178466200Y-40218672D01*
X178430064Y-40228789D01*
X178408330Y-40231211D01*
X178365091Y-40229698D01*
X178321475Y-40220523D01*
X178303924Y-40213685D01*
X178285869Y-40202283D01*
X178265946Y-40184726D01*
X178262360Y-40181196D01*
X178249739Y-40167943D01*
X178240897Y-40157332D01*
X178237565Y-40151398D01*
X178239635Y-40146784D01*
X178247497Y-40140329D01*
X178253965Y-40138112D01*
X178262506Y-40140061D01*
X178274634Y-40148137D01*
X178289044Y-40157647D01*
X178321364Y-40170616D01*
X178356153Y-40174799D01*
X178391413Y-40169827D01*
X178396447Y-40168159D01*
X178417501Y-40156389D01*
X178438602Y-40138093D01*
X178457404Y-40115575D01*
X178471561Y-40091137D01*
X178475270Y-40082950D01*
X178480548Y-40070655D01*
X178483348Y-40060787D01*
X178482815Y-40052635D01*
X178478094Y-40045491D01*
X178468328Y-40038643D01*
X178452664Y-40031384D01*
X178430244Y-40023003D01*
X178400214Y-40012791D01*
X178361718Y-40000039D01*
X178241546Y-39960202D01*
X178243768Y-39940260D01*
X178244437Y-39935911D01*
X178341583Y-39935911D01*
X178343348Y-39943671D01*
X178350439Y-39950401D01*
X178363857Y-39957161D01*
X178384605Y-39965012D01*
X178413685Y-39975015D01*
X178427685Y-39979787D01*
X178451449Y-39987911D01*
X178471056Y-39994645D01*
X178484777Y-39999394D01*
X178490881Y-40001564D01*
X178493090Y-39998079D01*
X178493909Y-39986126D01*
X178493233Y-39967013D01*
X178488701Y-39935103D01*
X178478315Y-39906475D01*
X178462498Y-39885758D01*
X178441421Y-39873169D01*
X178415257Y-39868925D01*
X178412483Y-39868966D01*
X178387167Y-39874000D01*
X178366952Y-39887479D01*
X178351764Y-39909451D01*
X178350021Y-39913053D01*
X178344142Y-39926059D01*
X178341583Y-39935911D01*
X178244437Y-39935911D01*
X178245377Y-39929800D01*
X178255842Y-39899337D01*
X178273455Y-39873807D01*
X178297001Y-39853474D01*
X178325265Y-39838603D01*
X178357031Y-39829458D01*
X178391085Y-39826304D01*
X178426211Y-39829404D01*
X178461194Y-39839024D01*
X178494819Y-39855427D01*
X178525871Y-39878879D01*
X178548471Y-39904516D01*
X178568303Y-39939368D01*
X178581293Y-39978138D01*
X178582475Y-39986126D01*
X178587353Y-40019078D01*
G37*
G36*
X180054674Y-39989840D02*
G01*
X180058902Y-40036788D01*
X180055292Y-40080740D01*
X180043638Y-40122237D01*
X180024137Y-40157943D01*
X179997004Y-40187564D01*
X179962453Y-40210806D01*
X179920698Y-40227371D01*
X179920339Y-40227473D01*
X179902971Y-40230593D01*
X179879505Y-40232377D01*
X179853561Y-40232546D01*
X179847109Y-40232344D01*
X179825429Y-40231028D01*
X179808883Y-40228299D01*
X179793660Y-40223304D01*
X179775950Y-40215191D01*
X179748820Y-40198935D01*
X179725039Y-40176858D01*
X179706814Y-40154616D01*
X179716866Y-40144564D01*
X179726918Y-40134512D01*
X179749659Y-40151871D01*
X179752618Y-40154070D01*
X179782709Y-40170423D01*
X179813980Y-40177664D01*
X179845196Y-40176180D01*
X179875122Y-40166358D01*
X179902522Y-40148584D01*
X179926161Y-40123246D01*
X179944804Y-40090731D01*
X179948622Y-40082190D01*
X179953449Y-40071024D01*
X179956014Y-40062131D01*
X179955438Y-40054810D01*
X179950841Y-40048361D01*
X179941344Y-40042084D01*
X179926070Y-40035279D01*
X179904138Y-40027246D01*
X179874670Y-40017285D01*
X179836788Y-40004697D01*
X179815580Y-39997633D01*
X179781806Y-39986295D01*
X179755969Y-39977160D01*
X179737162Y-39969544D01*
X179724476Y-39962761D01*
X179717004Y-39956125D01*
X179714924Y-39951412D01*
X179811629Y-39951412D01*
X179884673Y-39976868D01*
X179899460Y-39981989D01*
X179923124Y-39990035D01*
X179942579Y-39996464D01*
X179956127Y-40000718D01*
X179962068Y-40002240D01*
X179962401Y-40002123D01*
X179964063Y-39996299D01*
X179964674Y-39983444D01*
X179964098Y-39965992D01*
X179960250Y-39937722D01*
X179950163Y-39909293D01*
X179934289Y-39888754D01*
X179912702Y-39876192D01*
X179885474Y-39871694D01*
X179885278Y-39871692D01*
X179860599Y-39875912D01*
X179839996Y-39888626D01*
X179824421Y-39908965D01*
X179814826Y-39936063D01*
X179811629Y-39951412D01*
X179714924Y-39951412D01*
X179713838Y-39948950D01*
X179714070Y-39940552D01*
X179716791Y-39930245D01*
X179721095Y-39917343D01*
X179726204Y-39904792D01*
X179744230Y-39877877D01*
X179769467Y-39855541D01*
X179800229Y-39839444D01*
X179813022Y-39835021D01*
X179829395Y-39831259D01*
X179847493Y-39829918D01*
X179871339Y-39830494D01*
X179881421Y-39831199D01*
X179924870Y-39839657D01*
X179963298Y-39856196D01*
X179996098Y-39880152D01*
X180022666Y-39910855D01*
X180042393Y-39947640D01*
X180052813Y-39983444D01*
X180054674Y-39989840D01*
G37*
G36*
X177733489Y-39820035D02*
G01*
X177744555Y-39823194D01*
X177758961Y-39829909D01*
X177778249Y-39840936D01*
X177803963Y-39857033D01*
X177819753Y-39867323D01*
X177842506Y-39883199D01*
X177856868Y-39895207D01*
X177863084Y-39903784D01*
X177861398Y-39909369D01*
X177852052Y-39912398D01*
X177835292Y-39913311D01*
X177808144Y-39913311D01*
X177808144Y-40041097D01*
X177808146Y-40051305D01*
X177808257Y-40090990D01*
X177808721Y-40122151D01*
X177809787Y-40145888D01*
X177811706Y-40163300D01*
X177814727Y-40175488D01*
X177819099Y-40183551D01*
X177825071Y-40188589D01*
X177832893Y-40191703D01*
X177842814Y-40193992D01*
X177850117Y-40195832D01*
X177858434Y-40201087D01*
X177861533Y-40210873D01*
X177863095Y-40224271D01*
X177756645Y-40224271D01*
X177650196Y-40224271D01*
X177650196Y-40209463D01*
X177650518Y-40202759D01*
X177653843Y-40196177D01*
X177662916Y-40194656D01*
X177663623Y-40194638D01*
X177676559Y-40190382D01*
X177690063Y-40180228D01*
X177704491Y-40165800D01*
X177704491Y-40054693D01*
X177704491Y-39943587D01*
X177683230Y-39926165D01*
X177657674Y-39908129D01*
X177630007Y-39894956D01*
X177604143Y-39889122D01*
X177581341Y-39890894D01*
X177562860Y-39900541D01*
X177549011Y-39912451D01*
X177549011Y-40041638D01*
X177549011Y-40170825D01*
X177562860Y-40182740D01*
X177564120Y-40183785D01*
X177576940Y-40191496D01*
X177588773Y-40194656D01*
X177593944Y-40195009D01*
X177599513Y-40198917D01*
X177600838Y-40209561D01*
X177600838Y-40224467D01*
X177495950Y-40223135D01*
X177391063Y-40221803D01*
X177391063Y-40210238D01*
X177391725Y-40205022D01*
X177397209Y-40197971D01*
X177410191Y-40192098D01*
X177413832Y-40190783D01*
X177426836Y-40185073D01*
X177434870Y-40179984D01*
X177435256Y-40179435D01*
X177437254Y-40170658D01*
X177439033Y-40152125D01*
X177440595Y-40123808D01*
X177441940Y-40085679D01*
X177443072Y-40037708D01*
X177443499Y-40016552D01*
X177444392Y-39979099D01*
X177445360Y-39949718D01*
X177446491Y-39927192D01*
X177447874Y-39910303D01*
X177449596Y-39897835D01*
X177451747Y-39888572D01*
X177454414Y-39881295D01*
X177455343Y-39879225D01*
X177468397Y-39857039D01*
X177485108Y-39841970D01*
X177508216Y-39831484D01*
X177526566Y-39826881D01*
X177562643Y-39825379D01*
X177600502Y-39832843D01*
X177639199Y-39849038D01*
X177677792Y-39873730D01*
X177703235Y-39892939D01*
X177706331Y-39870353D01*
X177707017Y-39865000D01*
X177708738Y-39847532D01*
X177709427Y-39833648D01*
X177709427Y-39833261D01*
X177710475Y-39824103D01*
X177715509Y-39820291D01*
X177727457Y-39819529D01*
X177733489Y-39820035D01*
G37*
G36*
X180437026Y-39573259D02*
G01*
X180449237Y-39577961D01*
X180466391Y-39586655D01*
X180486786Y-39598252D01*
X180508720Y-39611661D01*
X180530494Y-39625793D01*
X180550405Y-39639558D01*
X180566753Y-39651866D01*
X180577837Y-39661627D01*
X180581955Y-39667751D01*
X180581649Y-39670609D01*
X180578204Y-39674239D01*
X180569199Y-39675956D01*
X180552489Y-39676389D01*
X180522874Y-39676389D01*
X180522874Y-39925875D01*
X180522874Y-40175361D01*
X180534989Y-40187476D01*
X180535420Y-40187899D01*
X180547569Y-40196171D01*
X180559824Y-40199591D01*
X180568786Y-40201413D01*
X180576121Y-40209430D01*
X180575384Y-40221803D01*
X180574384Y-40223338D01*
X180570427Y-40225479D01*
X180562614Y-40227043D01*
X180549740Y-40228115D01*
X180530604Y-40228777D01*
X180504003Y-40229113D01*
X180468734Y-40229207D01*
X180364926Y-40229207D01*
X180364926Y-40214399D01*
X180365201Y-40208168D01*
X180368355Y-40201242D01*
X180376991Y-40199591D01*
X180378096Y-40199546D01*
X180390333Y-40195742D01*
X180402904Y-40187687D01*
X180416753Y-40175783D01*
X180418314Y-40062487D01*
X180419876Y-39949192D01*
X180398944Y-39931275D01*
X180396581Y-39929280D01*
X180368629Y-39909663D01*
X180341426Y-39897512D01*
X180316111Y-39893040D01*
X180293823Y-39896462D01*
X180275701Y-39907995D01*
X180261273Y-39922423D01*
X180261273Y-40043500D01*
X180261464Y-40083134D01*
X180262124Y-40119820D01*
X180263237Y-40147908D01*
X180264785Y-40166977D01*
X180266753Y-40176603D01*
X180273265Y-40185763D01*
X180288186Y-40195739D01*
X180305928Y-40199591D01*
X180308174Y-40199719D01*
X180313983Y-40203518D01*
X180315568Y-40214399D01*
X180315568Y-40229207D01*
X180209446Y-40229207D01*
X180103325Y-40229207D01*
X180103325Y-40214399D01*
X180103408Y-40210949D01*
X180105881Y-40202026D01*
X180112964Y-40199591D01*
X180125254Y-40197718D01*
X180141495Y-40189408D01*
X180152139Y-40176603D01*
X180153838Y-40169093D01*
X180155462Y-40151487D01*
X180156648Y-40124888D01*
X180157373Y-40089765D01*
X180157620Y-40046590D01*
X180157647Y-40027158D01*
X180158008Y-39985796D01*
X180158935Y-39952617D01*
X180160614Y-39926423D01*
X180163231Y-39906017D01*
X180166970Y-39890202D01*
X180172017Y-39877779D01*
X180178559Y-39867553D01*
X180186779Y-39858324D01*
X180190518Y-39854761D01*
X180212016Y-39840248D01*
X180238270Y-39832055D01*
X180271145Y-39829546D01*
X180275775Y-39829654D01*
X180310005Y-39835714D01*
X180346957Y-39851091D01*
X180386754Y-39875834D01*
X180419221Y-39899002D01*
X180419221Y-39735869D01*
X180419221Y-39572736D01*
X180433656Y-39572736D01*
X180437026Y-39573259D01*
G37*
G36*
X181603435Y-40773176D02*
G01*
X181614448Y-40776710D01*
X181628533Y-40783557D01*
X181647346Y-40794521D01*
X181672546Y-40810406D01*
X181688492Y-40820811D01*
X181711139Y-40836552D01*
X181725505Y-40848380D01*
X181731872Y-40856763D01*
X181730519Y-40862171D01*
X181721727Y-40865072D01*
X181705778Y-40865934D01*
X181679393Y-40865934D01*
X181676040Y-40973289D01*
X181674826Y-41017580D01*
X181674376Y-41053584D01*
X181674916Y-41081817D01*
X181676655Y-41103325D01*
X181679803Y-41119156D01*
X181684567Y-41130357D01*
X181691158Y-41137976D01*
X181699784Y-41143060D01*
X181710655Y-41146656D01*
X181721958Y-41152505D01*
X181726321Y-41163647D01*
X181727883Y-41176894D01*
X181623574Y-41176894D01*
X181519265Y-41176894D01*
X181520827Y-41163606D01*
X181521148Y-41161400D01*
X181525921Y-41151732D01*
X181537597Y-41146405D01*
X181550412Y-41140977D01*
X181562277Y-41132036D01*
X181563759Y-41130276D01*
X181566509Y-41125668D01*
X181568603Y-41119033D01*
X181570159Y-41109065D01*
X181571295Y-41094456D01*
X181572130Y-41073898D01*
X181572783Y-41046084D01*
X181573372Y-41009705D01*
X181574997Y-40897830D01*
X181555207Y-40881927D01*
X181525576Y-40860982D01*
X181496727Y-40846902D01*
X181470967Y-40841256D01*
X181448791Y-40844148D01*
X181430695Y-40855683D01*
X181416267Y-40870111D01*
X181416267Y-40995808D01*
X181416268Y-41002170D01*
X181416365Y-41042303D01*
X181416806Y-41073829D01*
X181417846Y-41097855D01*
X181419740Y-41115490D01*
X181422742Y-41127844D01*
X181427108Y-41136025D01*
X181433093Y-41141141D01*
X181440951Y-41144302D01*
X181450937Y-41146616D01*
X181458239Y-41148456D01*
X181466557Y-41153710D01*
X181469656Y-41163496D01*
X181471217Y-41176894D01*
X181364768Y-41176894D01*
X181258319Y-41176894D01*
X181258319Y-41164400D01*
X181259929Y-41156075D01*
X181266957Y-41149129D01*
X181276481Y-41145943D01*
X181292124Y-41139463D01*
X181301516Y-41132804D01*
X181307038Y-41124502D01*
X181308746Y-41117173D01*
X181310425Y-41099387D01*
X181311635Y-41072108D01*
X181312368Y-41035539D01*
X181312614Y-40989883D01*
X181312622Y-40979421D01*
X181312907Y-40936912D01*
X181313737Y-40902787D01*
X181315298Y-40875829D01*
X181317773Y-40854819D01*
X181321347Y-40838541D01*
X181326206Y-40825777D01*
X181332534Y-40815308D01*
X181340514Y-40805918D01*
X181345520Y-40801480D01*
X181361228Y-40791623D01*
X181378711Y-40784376D01*
X181388451Y-40781718D01*
X181414386Y-40777428D01*
X181439599Y-40778113D01*
X181465585Y-40784220D01*
X181493837Y-40796195D01*
X181525847Y-40814484D01*
X181563109Y-40839535D01*
X181574215Y-40847395D01*
X181574215Y-40809774D01*
X181574215Y-40772153D01*
X181593636Y-40772153D01*
X181593836Y-40772153D01*
X181603435Y-40773176D01*
G37*
G36*
X179119890Y-39829811D02*
G01*
X179149918Y-39836434D01*
X179154545Y-39838076D01*
X179185383Y-39854407D01*
X179209103Y-39877418D01*
X179225220Y-39906500D01*
X179233251Y-39941047D01*
X179232604Y-39971230D01*
X179223311Y-39999065D01*
X179205095Y-40022954D01*
X179177867Y-40043013D01*
X179141535Y-40059359D01*
X179134663Y-40061806D01*
X179099381Y-40074721D01*
X179072219Y-40085446D01*
X179052033Y-40094539D01*
X179037681Y-40102553D01*
X179028023Y-40110046D01*
X179021915Y-40117573D01*
X179021695Y-40117935D01*
X179013544Y-40138358D01*
X179015036Y-40157221D01*
X179026231Y-40175319D01*
X179034557Y-40182873D01*
X179055560Y-40192261D01*
X179081565Y-40193680D01*
X179111897Y-40187037D01*
X179115362Y-40185833D01*
X179129176Y-40179612D01*
X179143209Y-40170423D01*
X179159527Y-40156756D01*
X179180198Y-40137099D01*
X179181902Y-40135423D01*
X179201461Y-40116618D01*
X179216517Y-40103496D01*
X179227292Y-40096533D01*
X179234006Y-40096203D01*
X179236881Y-40102983D01*
X179236136Y-40117347D01*
X179231993Y-40139771D01*
X179224673Y-40170729D01*
X179214396Y-40210697D01*
X179212817Y-40215992D01*
X179206488Y-40226676D01*
X179197099Y-40228408D01*
X179183277Y-40221672D01*
X179181198Y-40220367D01*
X179170312Y-40216709D01*
X179157538Y-40219615D01*
X179155822Y-40220254D01*
X179140407Y-40225108D01*
X179123554Y-40229384D01*
X179119572Y-40230186D01*
X179086869Y-40232798D01*
X179052407Y-40229607D01*
X179018964Y-40221275D01*
X178989320Y-40208466D01*
X178966252Y-40191842D01*
X178958678Y-40184083D01*
X178943098Y-40163063D01*
X178934047Y-40139803D01*
X178929951Y-40110785D01*
X178929902Y-40109993D01*
X178930988Y-40081610D01*
X178938423Y-40057390D01*
X178952910Y-40036582D01*
X178975152Y-40018434D01*
X179005851Y-40002195D01*
X179045711Y-39987115D01*
X179071439Y-39978390D01*
X179094637Y-39969732D01*
X179111653Y-39962111D01*
X179124303Y-39954698D01*
X179134404Y-39946665D01*
X179142425Y-39937165D01*
X179149065Y-39919082D01*
X179147656Y-39900362D01*
X179138601Y-39883525D01*
X179122306Y-39871094D01*
X179118845Y-39869506D01*
X179107307Y-39865736D01*
X179095300Y-39865526D01*
X179078364Y-39868628D01*
X179062536Y-39874033D01*
X179040611Y-39885197D01*
X179018334Y-39899517D01*
X178998939Y-39914880D01*
X178985658Y-39929177D01*
X178977958Y-39936102D01*
X178966188Y-39936109D01*
X178953758Y-39932990D01*
X178961023Y-39909577D01*
X178964035Y-39899730D01*
X178970379Y-39878468D01*
X178976394Y-39857782D01*
X178980841Y-39844576D01*
X178988240Y-39832100D01*
X178996603Y-39829020D01*
X179006304Y-39835054D01*
X179010079Y-39837360D01*
X179019582Y-39837698D01*
X179035672Y-39834052D01*
X179052422Y-39830442D01*
X179085812Y-39827781D01*
X179119890Y-39829811D01*
G37*
G36*
X179697918Y-40780154D02*
G01*
X179733089Y-40793369D01*
X179746770Y-40801809D01*
X179768614Y-40822926D01*
X179784256Y-40848888D01*
X179793215Y-40877759D01*
X179795010Y-40907606D01*
X179789158Y-40936493D01*
X179775179Y-40962485D01*
X179772900Y-40965233D01*
X179756761Y-40979006D01*
X179733204Y-40993253D01*
X179704129Y-41006938D01*
X179671436Y-41019025D01*
X179652976Y-41025252D01*
X179622472Y-41037395D01*
X179600379Y-41049520D01*
X179585758Y-41062346D01*
X179577673Y-41076594D01*
X179575187Y-41092984D01*
X179578141Y-41111528D01*
X179588945Y-41127334D01*
X179607902Y-41137616D01*
X179628580Y-41141548D01*
X179657802Y-41138649D01*
X179688319Y-41126740D01*
X179719418Y-41106123D01*
X179750386Y-41077103D01*
X179752626Y-41074686D01*
X179767524Y-41058961D01*
X179777708Y-41049454D01*
X179784810Y-41045125D01*
X179790463Y-41044934D01*
X179796299Y-41047838D01*
X179798220Y-41050363D01*
X179798898Y-41057099D01*
X179797393Y-41069076D01*
X179793510Y-41087705D01*
X179787051Y-41114397D01*
X179785122Y-41122059D01*
X179778529Y-41146883D01*
X179773043Y-41163446D01*
X179767829Y-41172846D01*
X179762053Y-41176179D01*
X179754880Y-41174543D01*
X179745474Y-41169036D01*
X179741758Y-41166731D01*
X179733990Y-41163823D01*
X179724631Y-41164497D01*
X179709862Y-41168720D01*
X179702137Y-41171156D01*
X179686860Y-41175808D01*
X179676372Y-41178782D01*
X179675211Y-41179042D01*
X179661697Y-41180085D01*
X179642381Y-41179648D01*
X179620720Y-41177985D01*
X179600168Y-41175351D01*
X179584183Y-41172000D01*
X179557431Y-41161033D01*
X179530157Y-41141291D01*
X179509299Y-41115744D01*
X179495968Y-41085816D01*
X179491277Y-41052934D01*
X179491281Y-41051535D01*
X179493241Y-41026597D01*
X179499405Y-41005498D01*
X179510704Y-40987371D01*
X179528064Y-40971347D01*
X179552415Y-40956561D01*
X179584686Y-40942142D01*
X179625805Y-40927224D01*
X179626157Y-40927105D01*
X179656279Y-40916172D01*
X179678126Y-40906193D01*
X179693095Y-40896241D01*
X179702587Y-40885388D01*
X179708000Y-40872705D01*
X179709945Y-40862956D01*
X179708236Y-40842963D01*
X179698391Y-40827668D01*
X179681203Y-40817979D01*
X179657466Y-40814806D01*
X179638330Y-40816718D01*
X179614812Y-40824416D01*
X179590563Y-40838903D01*
X179563631Y-40861141D01*
X179556862Y-40867207D01*
X179543034Y-40878233D01*
X179533249Y-40883219D01*
X179525754Y-40883186D01*
X179519788Y-40879828D01*
X179517916Y-40871706D01*
X179525657Y-40845086D01*
X179533524Y-40819156D01*
X179539715Y-40800747D01*
X179544712Y-40788733D01*
X179549000Y-40781989D01*
X179553062Y-40779388D01*
X179557381Y-40779806D01*
X179561509Y-40781042D01*
X179576649Y-40783120D01*
X179595812Y-40781946D01*
X179621611Y-40777423D01*
X179623602Y-40777025D01*
X179660243Y-40774537D01*
X179697918Y-40780154D01*
G37*
G36*
X179661563Y-40145364D02*
G01*
X179657796Y-40171119D01*
X179647518Y-40194355D01*
X179630965Y-40213250D01*
X179608375Y-40225981D01*
X179574917Y-40232831D01*
X179538641Y-40231293D01*
X179501513Y-40221640D01*
X179465442Y-40204161D01*
X179442075Y-40189907D01*
X179434825Y-40203926D01*
X179432036Y-40208600D01*
X179417734Y-40221383D01*
X179396533Y-40227766D01*
X179367998Y-40227903D01*
X179354162Y-40225743D01*
X179335314Y-40220904D01*
X179316463Y-40214510D01*
X179300016Y-40207494D01*
X179288383Y-40200791D01*
X179283970Y-40195332D01*
X179284055Y-40192460D01*
X179287354Y-40181927D01*
X179296703Y-40176470D01*
X179313822Y-40174912D01*
X179321717Y-40174633D01*
X179334445Y-40172775D01*
X179340873Y-40169750D01*
X179341054Y-40169250D01*
X179342012Y-40161259D01*
X179343081Y-40144961D01*
X179344205Y-40121645D01*
X179345326Y-40092605D01*
X179345327Y-40092561D01*
X179446854Y-40092561D01*
X179446854Y-40153351D01*
X179465667Y-40163924D01*
X179468571Y-40165470D01*
X179486508Y-40172772D01*
X179503920Y-40177084D01*
X179512265Y-40177832D01*
X179533459Y-40175079D01*
X179548479Y-40164689D01*
X179557420Y-40146568D01*
X179560379Y-40120617D01*
X179559678Y-40105794D01*
X179554700Y-40086899D01*
X179543527Y-40072792D01*
X179524505Y-40060712D01*
X179517944Y-40057585D01*
X179503063Y-40051197D01*
X179485825Y-40044332D01*
X179469087Y-40038080D01*
X179455709Y-40033530D01*
X179448549Y-40031772D01*
X179448496Y-40031801D01*
X179447856Y-40037111D01*
X179447334Y-40050262D01*
X179446983Y-40069373D01*
X179446854Y-40092561D01*
X179345327Y-40092561D01*
X179346388Y-40059131D01*
X179347334Y-40022516D01*
X179350604Y-39880445D01*
X179364039Y-39862838D01*
X179367316Y-39858836D01*
X179383479Y-39845320D01*
X179404992Y-39836193D01*
X179433194Y-39831028D01*
X179469425Y-39829401D01*
X179473167Y-39829423D01*
X179516734Y-39833050D01*
X179556147Y-39842523D01*
X179590159Y-39857311D01*
X179617523Y-39876882D01*
X179636990Y-39900706D01*
X179642127Y-39910376D01*
X179648739Y-39932217D01*
X179646305Y-39951151D01*
X179634797Y-39967985D01*
X179617728Y-39979621D01*
X179599715Y-39982971D01*
X179582268Y-39979183D01*
X179566802Y-39969496D01*
X179554735Y-39955148D01*
X179547483Y-39937380D01*
X179546464Y-39917429D01*
X179553094Y-39896535D01*
X179553655Y-39895448D01*
X179558126Y-39885756D01*
X179559233Y-39881226D01*
X179550512Y-39877218D01*
X179534595Y-39873083D01*
X179515769Y-39870060D01*
X179497720Y-39868888D01*
X179480336Y-39869819D01*
X179468621Y-39873454D01*
X179458969Y-39881003D01*
X179458159Y-39881820D01*
X179452940Y-39887956D01*
X179449635Y-39894993D01*
X179447817Y-39905174D01*
X179447056Y-39920741D01*
X179446922Y-39943936D01*
X179446990Y-39994753D01*
X179502451Y-40011061D01*
X179538750Y-40022323D01*
X179569105Y-40033317D01*
X179593085Y-40044199D01*
X179612413Y-40055756D01*
X179628811Y-40068773D01*
X179631423Y-40071219D01*
X179648613Y-40093591D01*
X179658581Y-40118914D01*
X179658773Y-40120617D01*
X179661563Y-40145364D01*
G37*
G36*
X178908844Y-40793572D02*
G01*
X178906939Y-40801585D01*
X178897013Y-40810510D01*
X178895456Y-40811256D01*
X178888869Y-40815431D01*
X178882134Y-40821789D01*
X178874768Y-40831185D01*
X178866287Y-40844474D01*
X178856208Y-40862509D01*
X178844047Y-40886145D01*
X178829321Y-40916237D01*
X178811546Y-40953638D01*
X178790240Y-40999203D01*
X178778395Y-41024644D01*
X178762346Y-41059061D01*
X178747860Y-41090069D01*
X178735455Y-41116559D01*
X178725650Y-41137422D01*
X178718965Y-41151551D01*
X178715920Y-41157835D01*
X178715613Y-41161265D01*
X178718342Y-41172708D01*
X178724326Y-41189225D01*
X178732544Y-41208590D01*
X178741975Y-41228574D01*
X178751598Y-41246952D01*
X178760392Y-41261497D01*
X178767336Y-41269982D01*
X178770616Y-41272461D01*
X178775705Y-41272927D01*
X178779906Y-41265042D01*
X178779913Y-41265023D01*
X178792329Y-41245406D01*
X178811002Y-41233030D01*
X178834685Y-41228721D01*
X178842529Y-41229015D01*
X178862173Y-41234031D01*
X178875810Y-41246152D01*
X178884988Y-41266543D01*
X178888195Y-41285409D01*
X178884988Y-41304423D01*
X178876880Y-41322727D01*
X178862866Y-41336967D01*
X178841302Y-41347426D01*
X178839985Y-41347882D01*
X178813440Y-41351842D01*
X178786440Y-41346945D01*
X178760946Y-41333846D01*
X178738918Y-41313201D01*
X178736768Y-41310517D01*
X178731281Y-41303231D01*
X178725709Y-41294958D01*
X178719658Y-41284896D01*
X178712734Y-41272241D01*
X178704543Y-41256191D01*
X178694691Y-41235942D01*
X178682786Y-41210692D01*
X178668434Y-41179639D01*
X178651240Y-41141978D01*
X178630812Y-41096908D01*
X178606756Y-41043626D01*
X178600087Y-41028857D01*
X178581866Y-40988695D01*
X178564668Y-40951054D01*
X178548995Y-40917016D01*
X178535348Y-40887663D01*
X178524230Y-40864076D01*
X178516142Y-40847336D01*
X178511586Y-40838525D01*
X178508654Y-40833996D01*
X178495984Y-40819495D01*
X178482252Y-40809021D01*
X178479278Y-40807305D01*
X178468754Y-40798745D01*
X178464615Y-40790774D01*
X178464721Y-40789279D01*
X178466280Y-40786443D01*
X178470793Y-40784456D01*
X178479644Y-40783169D01*
X178494216Y-40782434D01*
X178515893Y-40782102D01*
X178546057Y-40782024D01*
X178568862Y-40782050D01*
X178592606Y-40782252D01*
X178608898Y-40782801D01*
X178619134Y-40783865D01*
X178624714Y-40785612D01*
X178627036Y-40788211D01*
X178627499Y-40791830D01*
X178624045Y-40800150D01*
X178611458Y-40808341D01*
X178594539Y-40817996D01*
X178584125Y-40831851D01*
X178581279Y-40850573D01*
X178582118Y-40855470D01*
X178585972Y-40868795D01*
X178592359Y-40887769D01*
X178600631Y-40910733D01*
X178610138Y-40936024D01*
X178620231Y-40961981D01*
X178630260Y-40986943D01*
X178639576Y-41009250D01*
X178647530Y-41027240D01*
X178653472Y-41039252D01*
X178656753Y-41043626D01*
X178656772Y-41043625D01*
X178660151Y-41039199D01*
X178666417Y-41027194D01*
X178674893Y-41009217D01*
X178684904Y-40986876D01*
X178695771Y-40961777D01*
X178706820Y-40935526D01*
X178717373Y-40909732D01*
X178726754Y-40886001D01*
X178734287Y-40865939D01*
X178739295Y-40851155D01*
X178741101Y-40843254D01*
X178738024Y-40828917D01*
X178726646Y-40816082D01*
X178707383Y-40808613D01*
X178702484Y-40807457D01*
X178693930Y-40802659D01*
X178691665Y-40793747D01*
X178691665Y-40782024D01*
X178800255Y-40782024D01*
X178908844Y-40782024D01*
X178908844Y-40793572D01*
G37*
G36*
X181944405Y-39624717D02*
G01*
X181942757Y-39633097D01*
X181935768Y-39640255D01*
X181934118Y-39640869D01*
X181914588Y-39652494D01*
X181896550Y-39670183D01*
X181883407Y-39690661D01*
X181881238Y-39695601D01*
X181878871Y-39702215D01*
X181876981Y-39709999D01*
X181875501Y-39720042D01*
X181874367Y-39733431D01*
X181873515Y-39751254D01*
X181872880Y-39774597D01*
X181872397Y-39804550D01*
X181872001Y-39842199D01*
X181871628Y-39888631D01*
X181870317Y-40063855D01*
X182084296Y-39847518D01*
X182086888Y-39844898D01*
X182125081Y-39806376D01*
X182161496Y-39769800D01*
X182195491Y-39735808D01*
X182226423Y-39705036D01*
X182253647Y-39678119D01*
X182276520Y-39655695D01*
X182294400Y-39638398D01*
X182306643Y-39626866D01*
X182312605Y-39621735D01*
X182314153Y-39620748D01*
X182320604Y-39617523D01*
X182328850Y-39615227D01*
X182340505Y-39613707D01*
X182357185Y-39612807D01*
X182380504Y-39612374D01*
X182412079Y-39612255D01*
X182497223Y-39612223D01*
X182497223Y-39624468D01*
X182497205Y-39625620D01*
X182494030Y-39635055D01*
X182483650Y-39639860D01*
X182458642Y-39649750D01*
X182431679Y-39667866D01*
X182404358Y-39693157D01*
X182378266Y-39720745D01*
X182379748Y-39929319D01*
X182379762Y-39931279D01*
X182380135Y-39981810D01*
X182380502Y-40023469D01*
X182380916Y-40057221D01*
X182381428Y-40084031D01*
X182382093Y-40104864D01*
X182382961Y-40120685D01*
X182384086Y-40132461D01*
X182385519Y-40141155D01*
X182387314Y-40147734D01*
X182389523Y-40153162D01*
X182392198Y-40158404D01*
X182404029Y-40176205D01*
X182421987Y-40193326D01*
X182441263Y-40202702D01*
X182449297Y-40206846D01*
X182452800Y-40217402D01*
X182452800Y-40229207D01*
X182351615Y-40229207D01*
X182250430Y-40229207D01*
X182250430Y-40217402D01*
X182252692Y-40208380D01*
X182262389Y-40202596D01*
X182269294Y-40200167D01*
X182287149Y-40188552D01*
X182303786Y-40171088D01*
X182316490Y-40150396D01*
X182318802Y-40145036D01*
X182321059Y-40138395D01*
X182322876Y-40130382D01*
X182324315Y-40119935D01*
X182325440Y-40105990D01*
X182326312Y-40087486D01*
X182326996Y-40063361D01*
X182327553Y-40032551D01*
X182328046Y-39993994D01*
X182328539Y-39946628D01*
X182328557Y-39944760D01*
X182328842Y-39903670D01*
X182328894Y-39865912D01*
X182328725Y-39832574D01*
X182328352Y-39804748D01*
X182327787Y-39783523D01*
X182327046Y-39769988D01*
X182326143Y-39765235D01*
X182324867Y-39766143D01*
X182317407Y-39772912D01*
X182303862Y-39785811D01*
X182284814Y-39804267D01*
X182260844Y-39827709D01*
X182232535Y-39855565D01*
X182200469Y-39887262D01*
X182165227Y-39922230D01*
X182127392Y-39959896D01*
X182087546Y-39999689D01*
X182052490Y-40034732D01*
X182010769Y-40076365D01*
X181975098Y-40111832D01*
X181944960Y-40141620D01*
X181919838Y-40166212D01*
X181899213Y-40186095D01*
X181882567Y-40201753D01*
X181869384Y-40213671D01*
X181859145Y-40222334D01*
X181851332Y-40228228D01*
X181845428Y-40231837D01*
X181840914Y-40233647D01*
X181837273Y-40234143D01*
X181821415Y-40234143D01*
X181819978Y-39971166D01*
X181818541Y-39708190D01*
X181806013Y-39683652D01*
X181800973Y-39674592D01*
X181788111Y-39658794D01*
X181770242Y-39646774D01*
X181759698Y-39640635D01*
X181749899Y-39632045D01*
X181746985Y-39623328D01*
X181746971Y-39612223D01*
X181845688Y-39612223D01*
X181944405Y-39612223D01*
X181944405Y-39624717D01*
G37*
G36*
X181954206Y-40571016D02*
G01*
X181952915Y-40576854D01*
X181945497Y-40585517D01*
X181930131Y-40595356D01*
X181921526Y-40600499D01*
X181906011Y-40613935D01*
X181894417Y-40632375D01*
X181892132Y-40637096D01*
X181889355Y-40643614D01*
X181887186Y-40650708D01*
X181885548Y-40659541D01*
X181884368Y-40671274D01*
X181883571Y-40687069D01*
X181883080Y-40708088D01*
X181882823Y-40735492D01*
X181882724Y-40770445D01*
X181882707Y-40814108D01*
X181882775Y-40854884D01*
X181883134Y-40896904D01*
X181883950Y-40931141D01*
X181885387Y-40958745D01*
X181887610Y-40980865D01*
X181890781Y-40998651D01*
X181895065Y-41013255D01*
X181900625Y-41025826D01*
X181907626Y-41037513D01*
X181916231Y-41049468D01*
X181940011Y-41075215D01*
X181968914Y-41095229D01*
X182003285Y-41109026D01*
X182044136Y-41117009D01*
X182092482Y-41119580D01*
X182139234Y-41117189D01*
X182180377Y-41109394D01*
X182214992Y-41095793D01*
X182244081Y-41075987D01*
X182268648Y-41049578D01*
X182269944Y-41047862D01*
X182277999Y-41036592D01*
X182284572Y-41025578D01*
X182289826Y-41013694D01*
X182293927Y-40999815D01*
X182297041Y-40982817D01*
X182299333Y-40961573D01*
X182300967Y-40934959D01*
X182302110Y-40901849D01*
X182302925Y-40861117D01*
X182303580Y-40811640D01*
X182303974Y-40769149D01*
X182304087Y-40722744D01*
X182303749Y-40685691D01*
X182302954Y-40657701D01*
X182301697Y-40638486D01*
X182299970Y-40627758D01*
X182293345Y-40613456D01*
X182277496Y-40598579D01*
X182254008Y-40589935D01*
X182248933Y-40588710D01*
X182239905Y-40583460D01*
X182236528Y-40573308D01*
X182234966Y-40559910D01*
X182361487Y-40559910D01*
X182488007Y-40559910D01*
X182486445Y-40573354D01*
X182484269Y-40581747D01*
X182477924Y-40587164D01*
X182464628Y-40590777D01*
X182462723Y-40591192D01*
X182445861Y-40597738D01*
X182432544Y-40607336D01*
X182420717Y-40619915D01*
X182417693Y-40795985D01*
X182416791Y-40844866D01*
X182415820Y-40886192D01*
X182414671Y-40920014D01*
X182413219Y-40947527D01*
X182411334Y-40969929D01*
X182408891Y-40988415D01*
X182405762Y-41004182D01*
X182401820Y-41018425D01*
X182396938Y-41032342D01*
X182390988Y-41047128D01*
X182380169Y-41068663D01*
X182355027Y-41101967D01*
X182322189Y-41130500D01*
X182282532Y-41153688D01*
X182236931Y-41170953D01*
X182186263Y-41181720D01*
X182178544Y-41182588D01*
X182155948Y-41183955D01*
X182129630Y-41184415D01*
X182103829Y-41183856D01*
X182065098Y-41180732D01*
X182011135Y-41170738D01*
X181964453Y-41154330D01*
X181924770Y-41131332D01*
X181891803Y-41101566D01*
X181865272Y-41064854D01*
X181844894Y-41021020D01*
X181843989Y-41018512D01*
X181841241Y-41010057D01*
X181839014Y-41001016D01*
X181837228Y-40990229D01*
X181835804Y-40976535D01*
X181834661Y-40958773D01*
X181833718Y-40935783D01*
X181832897Y-40906405D01*
X181832117Y-40869476D01*
X181831298Y-40823837D01*
X181831238Y-40820340D01*
X181830458Y-40775864D01*
X181829750Y-40740059D01*
X181829023Y-40711804D01*
X181828188Y-40689980D01*
X181827155Y-40673466D01*
X181825835Y-40661142D01*
X181824137Y-40651888D01*
X181821973Y-40644582D01*
X181819252Y-40638106D01*
X181815884Y-40631338D01*
X181810847Y-40622283D01*
X181797984Y-40606483D01*
X181780114Y-40594461D01*
X181769570Y-40588323D01*
X181759771Y-40579732D01*
X181756857Y-40571016D01*
X181756842Y-40559910D01*
X181855560Y-40559910D01*
X181954277Y-40559910D01*
X181954206Y-40571016D01*
G37*
G36*
X183484398Y-38740468D02*
G01*
X183484398Y-38771978D01*
X183456016Y-38783256D01*
X183424382Y-38796858D01*
X183388736Y-38813923D01*
X183352732Y-38832608D01*
X183319581Y-38851246D01*
X183292493Y-38868170D01*
X183241454Y-38908135D01*
X183196412Y-38955567D01*
X183158826Y-39009374D01*
X183128838Y-39069351D01*
X183106593Y-39135293D01*
X183105332Y-39140015D01*
X183101505Y-39154293D01*
X183098054Y-39167427D01*
X183094959Y-39179970D01*
X183092200Y-39192471D01*
X183089754Y-39205481D01*
X183087601Y-39219552D01*
X183085721Y-39235233D01*
X183084091Y-39253076D01*
X183082692Y-39273631D01*
X183081501Y-39297449D01*
X183080498Y-39325080D01*
X183079663Y-39357077D01*
X183078973Y-39393988D01*
X183078408Y-39436365D01*
X183077947Y-39484759D01*
X183077569Y-39539720D01*
X183077253Y-39601799D01*
X183076978Y-39671547D01*
X183076722Y-39749514D01*
X183076466Y-39836251D01*
X183076187Y-39932310D01*
X183076091Y-39966596D01*
X183075873Y-40060227D01*
X183075742Y-40147250D01*
X183075695Y-40227369D01*
X183075731Y-40300286D01*
X183075849Y-40365706D01*
X183076048Y-40423331D01*
X183076327Y-40472865D01*
X183076684Y-40514011D01*
X183077119Y-40546472D01*
X183077629Y-40569952D01*
X183078214Y-40584154D01*
X183078873Y-40588781D01*
X183081458Y-40586497D01*
X183090877Y-40577720D01*
X183106894Y-40562628D01*
X183129212Y-40541504D01*
X183157534Y-40514631D01*
X183191564Y-40482292D01*
X183231005Y-40444769D01*
X183275559Y-40402346D01*
X183324930Y-40355306D01*
X183378821Y-40303932D01*
X183436935Y-40248507D01*
X183498976Y-40189314D01*
X183564646Y-40126635D01*
X183633649Y-40060754D01*
X183705687Y-39991954D01*
X183780465Y-39920518D01*
X183857684Y-39846729D01*
X183937048Y-39770870D01*
X184018261Y-39693224D01*
X184078264Y-39635853D01*
X184158704Y-39558958D01*
X184237274Y-39483866D01*
X184313664Y-39410875D01*
X184387566Y-39340278D01*
X184458669Y-39272372D01*
X184526664Y-39207452D01*
X184591241Y-39145812D01*
X184652091Y-39087749D01*
X184708904Y-39033557D01*
X184761371Y-38983532D01*
X184809181Y-38937970D01*
X184852025Y-38897164D01*
X184889595Y-38861412D01*
X184921579Y-38831008D01*
X184947669Y-38806246D01*
X184967555Y-38787424D01*
X184980927Y-38774835D01*
X184987475Y-38768776D01*
X184992378Y-38764522D01*
X185012645Y-38748483D01*
X185033488Y-38733925D01*
X185051092Y-38723560D01*
X185080261Y-38708958D01*
X185454599Y-38708958D01*
X185828937Y-38708958D01*
X185828937Y-38740739D01*
X185828937Y-38772519D01*
X185805492Y-38775722D01*
X185768035Y-38782093D01*
X185701214Y-38800435D01*
X185637419Y-38827596D01*
X185575288Y-38864101D01*
X185572430Y-38866022D01*
X185549177Y-38882282D01*
X185525556Y-38900042D01*
X185500477Y-38920227D01*
X185472850Y-38943765D01*
X185441587Y-38971579D01*
X185405596Y-39004595D01*
X185363789Y-39043740D01*
X185271300Y-39130975D01*
X185272766Y-39883696D01*
X185272804Y-39903446D01*
X185273000Y-40002399D01*
X185273186Y-40092070D01*
X185273370Y-40172953D01*
X185273560Y-40245543D01*
X185273763Y-40310336D01*
X185273987Y-40367827D01*
X185274238Y-40418511D01*
X185274524Y-40462883D01*
X185274852Y-40501439D01*
X185275231Y-40534675D01*
X185275666Y-40563084D01*
X185276167Y-40587163D01*
X185276739Y-40607406D01*
X185277391Y-40624309D01*
X185278129Y-40638368D01*
X185278962Y-40650077D01*
X185279896Y-40659931D01*
X185280940Y-40668427D01*
X185282099Y-40676058D01*
X185283382Y-40683321D01*
X185284797Y-40690711D01*
X185297240Y-40745447D01*
X185318190Y-40811099D01*
X185344769Y-40869432D01*
X185377620Y-40921281D01*
X185417386Y-40967484D01*
X185464711Y-41008878D01*
X185520239Y-41046299D01*
X185584611Y-41080583D01*
X185605579Y-41090451D01*
X185627460Y-41100424D01*
X185645593Y-41108353D01*
X185657416Y-41113095D01*
X185675925Y-41119647D01*
X185675925Y-41153206D01*
X185675925Y-41186766D01*
X185231697Y-41186766D01*
X184787468Y-41186766D01*
X184787468Y-41153206D01*
X184787468Y-41119647D01*
X184805978Y-41113283D01*
X184819970Y-41107976D01*
X184847961Y-41095601D01*
X184879954Y-41079874D01*
X184913372Y-41062178D01*
X184945639Y-41043896D01*
X184974179Y-41026408D01*
X184996417Y-41011099D01*
X185007141Y-41002662D01*
X185030115Y-40982812D01*
X185052076Y-40961826D01*
X185069444Y-40943038D01*
X185073951Y-40937474D01*
X185094757Y-40907746D01*
X185115611Y-40872214D01*
X185134894Y-40834027D01*
X185150990Y-40796333D01*
X185162282Y-40762281D01*
X185162725Y-40760628D01*
X185166473Y-40746788D01*
X185169848Y-40734245D01*
X185172871Y-40722441D01*
X185175561Y-40710818D01*
X185177941Y-40698816D01*
X185180032Y-40685878D01*
X185181853Y-40671446D01*
X185183425Y-40654959D01*
X185184771Y-40635861D01*
X185185910Y-40613593D01*
X185186864Y-40587596D01*
X185187653Y-40557312D01*
X185188298Y-40522182D01*
X185188821Y-40481649D01*
X185189241Y-40435152D01*
X185189581Y-40382135D01*
X185189860Y-40322038D01*
X185190099Y-40254304D01*
X185190321Y-40178373D01*
X185190544Y-40093687D01*
X185190791Y-39999689D01*
X185190805Y-39994372D01*
X185191007Y-39914047D01*
X185191181Y-39835453D01*
X185191325Y-39759269D01*
X185191441Y-39686174D01*
X185191528Y-39616845D01*
X185191585Y-39551961D01*
X185191612Y-39492201D01*
X185191608Y-39438242D01*
X185191575Y-39390763D01*
X185191510Y-39350442D01*
X185191414Y-39317959D01*
X185191287Y-39293990D01*
X185191128Y-39279214D01*
X185189742Y-39200403D01*
X184128529Y-40200869D01*
X183067316Y-41201335D01*
X183034165Y-41201454D01*
X183001013Y-41201574D01*
X182999363Y-40242780D01*
X182999191Y-40144663D01*
X182998991Y-40037489D01*
X182998791Y-39939397D01*
X182998586Y-39849959D01*
X182998373Y-39768749D01*
X182998147Y-39695337D01*
X182997904Y-39629297D01*
X182997640Y-39570201D01*
X182997350Y-39517621D01*
X182997030Y-39471129D01*
X182996676Y-39430298D01*
X182996284Y-39394701D01*
X182995849Y-39363908D01*
X182995367Y-39337494D01*
X182994834Y-39315030D01*
X182994246Y-39296088D01*
X182993598Y-39280241D01*
X182992887Y-39267061D01*
X182992107Y-39256121D01*
X182991255Y-39246992D01*
X182990326Y-39239248D01*
X182989316Y-39232460D01*
X182987988Y-39224492D01*
X182972627Y-39151487D01*
X182952508Y-39086547D01*
X182927054Y-39028853D01*
X182895689Y-38977586D01*
X182857837Y-38931926D01*
X182812921Y-38891053D01*
X182760366Y-38854147D01*
X182699594Y-38820388D01*
X182681989Y-38811752D01*
X182657701Y-38800232D01*
X182635761Y-38790237D01*
X182619386Y-38783258D01*
X182591005Y-38771978D01*
X182591005Y-38740468D01*
X182591005Y-38708958D01*
X183037701Y-38708958D01*
X183484398Y-38708958D01*
X183484398Y-38740468D01*
G37*
G36*
X157093592Y-40371066D02*
G01*
X157101760Y-40379425D01*
X157170781Y-40450077D01*
X157237738Y-40518651D01*
X157301976Y-40584472D01*
X157362838Y-40646868D01*
X157419668Y-40705165D01*
X157471811Y-40758688D01*
X157518609Y-40806763D01*
X157559406Y-40848718D01*
X157593547Y-40883878D01*
X157620375Y-40911570D01*
X157639234Y-40931119D01*
X157649468Y-40941853D01*
X157691346Y-40986653D01*
X157555497Y-40986653D01*
X157419648Y-40986653D01*
X156844572Y-40418443D01*
X156784623Y-40359197D01*
X156713904Y-40289268D01*
X156646328Y-40222407D01*
X156582467Y-40159183D01*
X156522895Y-40100163D01*
X156468185Y-40045918D01*
X156418910Y-39997015D01*
X156375644Y-39954024D01*
X156338958Y-39917514D01*
X156309428Y-39888053D01*
X156287625Y-39866211D01*
X156274123Y-39852556D01*
X156269495Y-39847656D01*
X156271941Y-39847201D01*
X156285531Y-39846519D01*
X156309426Y-39845935D01*
X156341785Y-39845480D01*
X156380770Y-39845185D01*
X156424544Y-39845080D01*
X156579594Y-39845080D01*
X157093592Y-40371066D01*
G37*
G36*
X152651230Y-39105801D02*
G01*
X152651609Y-39105885D01*
X152661898Y-39107938D01*
X152683495Y-39112124D01*
X152715047Y-39118185D01*
X152755200Y-39125865D01*
X152802604Y-39134908D01*
X152855904Y-39145058D01*
X152913748Y-39156058D01*
X152974785Y-39167651D01*
X153037660Y-39179582D01*
X153101022Y-39191593D01*
X153163517Y-39203429D01*
X153223794Y-39214832D01*
X153280500Y-39225548D01*
X153332281Y-39235318D01*
X153377786Y-39243886D01*
X153415662Y-39250997D01*
X153444556Y-39256394D01*
X153463115Y-39259820D01*
X153469987Y-39261019D01*
X153470509Y-39261992D01*
X153472102Y-39272740D01*
X153473900Y-39293491D01*
X153475720Y-39321894D01*
X153477379Y-39355597D01*
X153485175Y-39457750D01*
X153505991Y-39596085D01*
X153538510Y-39737612D01*
X153582426Y-39881225D01*
X153637433Y-40025821D01*
X153703226Y-40170295D01*
X153732757Y-40227130D01*
X153806888Y-40349004D01*
X153892407Y-40464135D01*
X153989251Y-40572472D01*
X154097357Y-40673963D01*
X154216665Y-40768558D01*
X154347112Y-40856205D01*
X154488636Y-40936854D01*
X154641176Y-41010453D01*
X154804668Y-41076951D01*
X154832227Y-41086880D01*
X154868931Y-41099403D01*
X154908133Y-41112199D01*
X154947326Y-41124499D01*
X154984002Y-41135534D01*
X155015654Y-41144536D01*
X155039776Y-41150736D01*
X155053861Y-41153364D01*
X155055028Y-41153493D01*
X155055400Y-41155644D01*
X155044959Y-41159216D01*
X155040015Y-41160337D01*
X155010312Y-41164018D01*
X154970073Y-41165522D01*
X154921372Y-41164968D01*
X154866285Y-41162472D01*
X154806886Y-41158152D01*
X154745249Y-41152124D01*
X154683449Y-41144506D01*
X154623561Y-41135416D01*
X154542591Y-41120204D01*
X154386866Y-41081456D01*
X154235435Y-41030800D01*
X154087722Y-40967977D01*
X153943151Y-40892731D01*
X153801147Y-40804802D01*
X153661133Y-40703933D01*
X153630023Y-40678694D01*
X153586422Y-40640548D01*
X153538048Y-40595856D01*
X153486914Y-40546632D01*
X153435036Y-40494890D01*
X153384426Y-40442646D01*
X153337097Y-40391913D01*
X153295065Y-40344705D01*
X153260342Y-40303036D01*
X153239285Y-40276023D01*
X153194407Y-40215625D01*
X153146691Y-40148201D01*
X153098268Y-40076920D01*
X153051272Y-40004954D01*
X153007837Y-39935473D01*
X152970095Y-39871649D01*
X152960437Y-39854569D01*
X152908184Y-39757389D01*
X152856482Y-39653600D01*
X152806577Y-39546067D01*
X152759714Y-39437651D01*
X152717141Y-39331217D01*
X152680102Y-39229628D01*
X152649845Y-39135747D01*
X152646145Y-39122925D01*
X152643446Y-39110204D01*
X152645097Y-39105458D01*
X152651230Y-39105801D01*
G37*
G36*
X159591868Y-39064643D02*
G01*
X159630088Y-39066031D01*
X159675339Y-39068519D01*
X159730718Y-39072146D01*
X159866788Y-39085989D01*
X160029110Y-39114544D01*
X160188866Y-39155855D01*
X160345761Y-39209728D01*
X160499506Y-39275964D01*
X160649807Y-39354366D01*
X160796374Y-39444739D01*
X160938913Y-39546884D01*
X161077133Y-39660605D01*
X161210743Y-39785705D01*
X161339449Y-39921987D01*
X161462961Y-40069254D01*
X161580985Y-40227309D01*
X161693231Y-40395955D01*
X161714187Y-40429723D01*
X161775593Y-40533410D01*
X161834902Y-40640403D01*
X161890398Y-40747431D01*
X161940363Y-40851217D01*
X161983079Y-40948490D01*
X162009903Y-41013201D01*
X161818538Y-41013201D01*
X161627172Y-41013201D01*
X161619487Y-40981675D01*
X161603523Y-40922186D01*
X161579041Y-40843520D01*
X161549453Y-40758398D01*
X161515760Y-40669447D01*
X161478964Y-40579296D01*
X161440066Y-40490575D01*
X161400069Y-40405911D01*
X161366906Y-40340131D01*
X161299584Y-40216786D01*
X161229090Y-40101458D01*
X161153221Y-39990645D01*
X161069772Y-39880842D01*
X161047116Y-39853442D01*
X161008361Y-39809562D01*
X160963866Y-39761801D01*
X160915985Y-39712524D01*
X160867071Y-39664092D01*
X160819477Y-39618868D01*
X160775556Y-39579213D01*
X160737663Y-39547490D01*
X160688189Y-39509556D01*
X160556842Y-39419926D01*
X160420951Y-39342763D01*
X160280614Y-39278099D01*
X160135930Y-39225966D01*
X159986996Y-39186398D01*
X159833911Y-39159426D01*
X159676773Y-39145084D01*
X159515681Y-39143403D01*
X159449800Y-39146333D01*
X159357698Y-39154384D01*
X159266411Y-39167436D01*
X159172941Y-39186027D01*
X159074289Y-39210697D01*
X158967457Y-39241984D01*
X158951988Y-39246869D01*
X158866952Y-39276084D01*
X158774009Y-39311520D01*
X158675685Y-39352072D01*
X158574503Y-39396635D01*
X158472988Y-39444103D01*
X158373665Y-39493372D01*
X158279057Y-39543336D01*
X158199559Y-39587772D01*
X158059863Y-39670204D01*
X157915909Y-39760215D01*
X157770250Y-39856065D01*
X157625439Y-39956018D01*
X157484030Y-40058335D01*
X157348576Y-40161279D01*
X157221630Y-40263111D01*
X157219042Y-40265246D01*
X157194501Y-40285156D01*
X157173777Y-40301383D01*
X157158984Y-40312309D01*
X157152235Y-40316311D01*
X157151802Y-40316296D01*
X157142658Y-40310793D01*
X157135771Y-40299881D01*
X157135388Y-40290154D01*
X157135393Y-40290146D01*
X157141575Y-40283784D01*
X157156163Y-40270257D01*
X157177506Y-40251049D01*
X157203954Y-40227645D01*
X157233856Y-40201533D01*
X157370823Y-40085718D01*
X157538608Y-39951905D01*
X157707336Y-39825955D01*
X157876308Y-39708263D01*
X158044827Y-39599226D01*
X158212195Y-39499239D01*
X158377716Y-39408699D01*
X158540690Y-39328002D01*
X158700422Y-39257545D01*
X158856213Y-39197722D01*
X159007365Y-39148931D01*
X159153182Y-39111568D01*
X159160665Y-39109928D01*
X159235315Y-39094901D01*
X159305728Y-39083559D01*
X159377724Y-39075081D01*
X159457119Y-39068644D01*
X159488459Y-39066685D01*
X159524149Y-39065010D01*
X159557587Y-39064316D01*
X159591868Y-39064643D01*
G37*
G36*
X152555200Y-39061848D02*
G01*
X152561341Y-39074296D01*
X152570146Y-39095981D01*
X152580841Y-39124966D01*
X152592649Y-39159316D01*
X152658383Y-39340957D01*
X152740196Y-39534838D01*
X152832454Y-39725062D01*
X152934110Y-39909618D01*
X153044120Y-40086494D01*
X153161438Y-40253676D01*
X153239441Y-40353512D01*
X153349314Y-40480247D01*
X153465094Y-40599125D01*
X153585364Y-40708792D01*
X153708704Y-40807893D01*
X153833697Y-40895076D01*
X153959588Y-40970412D01*
X154087429Y-41034964D01*
X154218500Y-41089032D01*
X154354696Y-41133314D01*
X154497915Y-41168507D01*
X154650054Y-41195308D01*
X154689060Y-41199842D01*
X154744281Y-41203937D01*
X154807441Y-41206765D01*
X154875703Y-41208319D01*
X154946231Y-41208591D01*
X155016190Y-41207575D01*
X155082744Y-41205261D01*
X155143057Y-41201644D01*
X155194292Y-41196716D01*
X155251612Y-41189138D01*
X155442114Y-41155817D01*
X155634132Y-41110000D01*
X155826700Y-41052058D01*
X156018851Y-40982363D01*
X156209617Y-40901287D01*
X156398033Y-40809201D01*
X156583131Y-40706477D01*
X156763943Y-40593485D01*
X156796029Y-40572701D01*
X156821953Y-40557353D01*
X156840251Y-40548931D01*
X156852496Y-40546917D01*
X156860257Y-40550790D01*
X156865107Y-40560032D01*
X156864584Y-40562166D01*
X156856301Y-40572426D01*
X156839053Y-40589395D01*
X156813952Y-40612144D01*
X156782110Y-40639745D01*
X156744638Y-40671268D01*
X156702649Y-40705786D01*
X156657253Y-40742370D01*
X156609563Y-40780090D01*
X156560691Y-40818017D01*
X156511747Y-40855224D01*
X156357186Y-40967791D01*
X156174260Y-41091730D01*
X155992099Y-41205155D01*
X155811158Y-41307863D01*
X155631892Y-41399647D01*
X155454753Y-41480304D01*
X155280196Y-41549629D01*
X155108675Y-41607417D01*
X154940645Y-41653463D01*
X154776558Y-41687563D01*
X154616869Y-41709512D01*
X154596018Y-41711168D01*
X154552760Y-41713024D01*
X154501058Y-41713845D01*
X154443887Y-41713692D01*
X154384225Y-41712626D01*
X154325047Y-41710710D01*
X154269331Y-41708004D01*
X154220052Y-41704571D01*
X154180187Y-41700472D01*
X154009451Y-41672612D01*
X153843252Y-41633333D01*
X153682818Y-41582596D01*
X153527534Y-41520125D01*
X153376785Y-41445645D01*
X153229955Y-41358881D01*
X153086429Y-41259557D01*
X152945594Y-41147397D01*
X152915203Y-41120663D01*
X152872319Y-41080860D01*
X152825128Y-41035282D01*
X152775979Y-40986311D01*
X152727224Y-40936328D01*
X152681213Y-40887716D01*
X152640298Y-40842858D01*
X152606829Y-40804134D01*
X152602314Y-40798688D01*
X152474167Y-40633764D01*
X152354587Y-40459367D01*
X152244407Y-40276792D01*
X152144462Y-40087332D01*
X152122571Y-40041931D01*
X152100283Y-39994035D01*
X152079388Y-39947532D01*
X152060629Y-39904175D01*
X152044746Y-39865719D01*
X152032483Y-39833918D01*
X152024580Y-39810527D01*
X152021781Y-39797299D01*
X152022834Y-39795103D01*
X152030403Y-39783297D01*
X152044619Y-39762408D01*
X152064707Y-39733511D01*
X152089892Y-39697681D01*
X152119401Y-39655995D01*
X152152458Y-39609528D01*
X152188289Y-39559355D01*
X152226121Y-39506552D01*
X152265178Y-39452195D01*
X152304686Y-39397359D01*
X152343871Y-39343119D01*
X152381958Y-39290552D01*
X152418174Y-39240733D01*
X152451743Y-39194738D01*
X152481891Y-39153641D01*
X152507844Y-39118520D01*
X152528827Y-39090449D01*
X152544066Y-39070504D01*
X152552787Y-39059760D01*
X152555200Y-39061848D01*
G37*
%TD*%
M02*
