%TF.GenerationSoftware,KiCad,Pcbnew,9.0.6*%
%TF.CreationDate,2026-06-04T15:37:11-04:00*%
%TF.ProjectId,pcbvr_left,70636276-725f-46c6-9566-742e6b696361,rev?*%
%TF.SameCoordinates,Original*%
%TF.FileFunction,Paste,Top*%
%TF.FilePolarity,Positive*%
%FSLAX46Y46*%
G04 Gerber Fmt 4.6, Leading zero omitted, Abs format (unit mm)*
G04 Created by KiCad (PCBNEW 9.0.6) date 2026-06-04 15:37:11*
%MOMM*%
%LPD*%
G01*
G04 APERTURE LIST*
G04 Aperture macros list*
%AMRoundRect*
0 Rectangle with rounded corners*
0 $1 Rounding radius*
0 $2 $3 $4 $5 $6 $7 $8 $9 X,Y pos of 4 corners*
0 Add a 4 corners polygon primitive as box body*
4,1,4,$2,$3,$4,$5,$6,$7,$8,$9,$2,$3,0*
0 Add four circle primitives for the rounded corners*
1,1,$1+$1,$2,$3*
1,1,$1+$1,$4,$5*
1,1,$1+$1,$6,$7*
1,1,$1+$1,$8,$9*
0 Add four rect primitives between the rounded corners*
20,1,$1+$1,$2,$3,$4,$5,0*
20,1,$1+$1,$4,$5,$6,$7,0*
20,1,$1+$1,$6,$7,$8,$9,0*
20,1,$1+$1,$8,$9,$2,$3,0*%
G04 Aperture macros list end*
%ADD10C,0.010000*%
%ADD11R,2.200000X1.900000*%
%ADD12R,1.300000X0.300000*%
%ADD13RoundRect,0.250000X-0.450000X0.350000X-0.450000X-0.350000X0.450000X-0.350000X0.450000X0.350000X0*%
%ADD14R,0.700000X1.500000*%
%ADD15R,1.000000X0.800000*%
%ADD16RoundRect,0.033750X-0.101250X-0.386250X0.101250X-0.386250X0.101250X0.386250X-0.101250X0.386250X0*%
%ADD17RoundRect,0.033750X-0.386250X-0.101250X0.386250X-0.101250X0.386250X0.101250X-0.386250X0.101250X0*%
%ADD18RoundRect,0.062500X0.375000X-0.062500X0.375000X0.062500X-0.375000X0.062500X-0.375000X-0.062500X0*%
%ADD19RoundRect,0.062500X0.062500X-0.375000X0.062500X0.375000X-0.062500X0.375000X-0.062500X-0.375000X0*%
%ADD20RoundRect,0.160000X0.160000X-0.160000X0.160000X0.160000X-0.160000X0.160000X-0.160000X-0.160000X0*%
%ADD21RoundRect,0.243750X-0.243750X-0.456250X0.243750X-0.456250X0.243750X0.456250X-0.243750X0.456250X0*%
%ADD22RoundRect,0.250000X0.262500X0.450000X-0.262500X0.450000X-0.262500X-0.450000X0.262500X-0.450000X0*%
%ADD23RoundRect,0.250000X0.450000X-0.262500X0.450000X0.262500X-0.450000X0.262500X-0.450000X-0.262500X0*%
%ADD24RoundRect,0.250000X-0.337500X-0.475000X0.337500X-0.475000X0.337500X0.475000X-0.337500X0.475000X0*%
%ADD25RoundRect,0.250000X-0.350000X0.275000X-0.350000X-0.275000X0.350000X-0.275000X0.350000X0.275000X0*%
%ADD26RoundRect,0.250000X0.337500X0.475000X-0.337500X0.475000X-0.337500X-0.475000X0.337500X-0.475000X0*%
%ADD27RoundRect,0.250000X-0.262500X-0.450000X0.262500X-0.450000X0.262500X0.450000X-0.262500X0.450000X0*%
%ADD28RoundRect,0.175000X-0.175000X-0.425000X0.175000X-0.425000X0.175000X0.425000X-0.175000X0.425000X0*%
%ADD29RoundRect,0.190000X0.190000X0.410000X-0.190000X0.410000X-0.190000X-0.410000X0.190000X-0.410000X0*%
%ADD30RoundRect,0.200000X0.200000X0.400000X-0.200000X0.400000X-0.200000X-0.400000X0.200000X-0.400000X0*%
%ADD31RoundRect,0.175000X0.175000X0.425000X-0.175000X0.425000X-0.175000X-0.425000X0.175000X-0.425000X0*%
%ADD32RoundRect,0.190000X-0.190000X-0.410000X0.190000X-0.410000X0.190000X0.410000X-0.190000X0.410000X0*%
%ADD33RoundRect,0.200000X-0.200000X-0.400000X0.200000X-0.400000X0.200000X0.400000X-0.200000X0.400000X0*%
%ADD34O,1.100000X1.700000*%
%ADD35RoundRect,0.250000X-0.450000X0.262500X-0.450000X-0.262500X0.450000X-0.262500X0.450000X0.262500X0*%
%ADD36RoundRect,0.250000X-0.475000X0.250000X-0.475000X-0.250000X0.475000X-0.250000X0.475000X0.250000X0*%
%ADD37RoundRect,0.243750X-0.456250X0.243750X-0.456250X-0.243750X0.456250X-0.243750X0.456250X0.243750X0*%
%ADD38RoundRect,0.250000X0.475000X-0.250000X0.475000X0.250000X-0.475000X0.250000X-0.475000X-0.250000X0*%
%ADD39RoundRect,0.250000X0.350000X-0.275000X0.350000X0.275000X-0.350000X0.275000X-0.350000X-0.275000X0*%
G04 APERTURE END LIST*
D10*
%TO.C,U1*%
X152995400Y-43172600D02*
X152295400Y-43172600D01*
X152295400Y-42472600D01*
X152995400Y-42472600D01*
X152995400Y-43172600D01*
G36*
X152995400Y-43172600D02*
G01*
X152295400Y-43172600D01*
X152295400Y-42472600D01*
X152995400Y-42472600D01*
X152995400Y-43172600D01*
G37*
%TD*%
D11*
%TO.C,J3*%
X142332600Y-41039600D03*
X142332600Y-47439600D03*
D12*
X145582600Y-45489600D03*
X145582600Y-44989600D03*
X145582600Y-44489600D03*
X145582600Y-43989600D03*
X145582600Y-43489600D03*
X145582600Y-42989600D03*
%TD*%
D13*
%TO.C,R1*%
X149631400Y-47853000D03*
X149631400Y-45853000D03*
%TD*%
D14*
%TO.C,SW1*%
X191540000Y-41427400D03*
X193040000Y-41427400D03*
X196040000Y-41427400D03*
D15*
X190140000Y-38567400D03*
X190140000Y-40777400D03*
X197440000Y-38567400D03*
X197440000Y-40777400D03*
%TD*%
D16*
%TO.C,U1*%
X151895400Y-41387600D03*
X152395400Y-41387600D03*
X152895400Y-41387600D03*
X153395400Y-41387600D03*
D17*
X154080400Y-42072600D03*
X154080400Y-42572600D03*
X154080400Y-43072600D03*
X154080400Y-43572600D03*
D16*
X153395400Y-44257600D03*
X152895400Y-44257600D03*
X152395400Y-44257600D03*
X151895400Y-44257600D03*
D17*
X151210400Y-43572600D03*
X151210400Y-43072600D03*
X151210400Y-42572600D03*
X151210400Y-42072600D03*
%TD*%
D18*
%TO.C,U2*%
X179587300Y-44143200D03*
X179587300Y-43643200D03*
X179587300Y-43143200D03*
X179587300Y-42643200D03*
D19*
X180274800Y-41955700D03*
X180774800Y-41955700D03*
X181274800Y-41955700D03*
X181774800Y-41955700D03*
D18*
X182462300Y-42643200D03*
X182462300Y-43143200D03*
X182462300Y-43643200D03*
X182462300Y-44143200D03*
D19*
X181774800Y-44830700D03*
X181274800Y-44830700D03*
X180774800Y-44830700D03*
X180274800Y-44830700D03*
D20*
X181424800Y-42993200D03*
X180624800Y-42993200D03*
X181424800Y-43793200D03*
X180624800Y-43793200D03*
%TD*%
D21*
%TO.C,D2*%
X186232800Y-44272200D03*
X188107800Y-44272200D03*
%TD*%
D22*
%TO.C,R3*%
X169011600Y-40868600D03*
X167186600Y-40868600D03*
%TD*%
D23*
%TO.C,R5*%
X172948600Y-48412400D03*
X172948600Y-46587400D03*
%TD*%
D24*
%TO.C,C5*%
X157513200Y-47853600D03*
X159588200Y-47853600D03*
%TD*%
D25*
%TO.C,FB2*%
X155712200Y-44196000D03*
X155712200Y-46496000D03*
%TD*%
D26*
%TO.C,C2*%
X153716200Y-46024800D03*
X151641200Y-46024800D03*
%TD*%
D27*
%TO.C,R10*%
X186285500Y-46278800D03*
X188110500Y-46278800D03*
%TD*%
D28*
%TO.C,J1*%
X165837800Y-43383200D03*
D29*
X167857800Y-43383200D03*
D30*
X169087800Y-43383200D03*
D31*
X166837800Y-43383200D03*
D32*
X164817800Y-43383200D03*
D33*
X163587800Y-43383200D03*
D34*
X162017800Y-43463200D03*
X162017800Y-47263200D03*
X170657800Y-43463200D03*
X170657800Y-47263200D03*
%TD*%
D35*
%TO.C,R8*%
X188290200Y-40618400D03*
X188290200Y-42443400D03*
%TD*%
D27*
%TO.C,R2*%
X163656000Y-40894000D03*
X165481000Y-40894000D03*
%TD*%
D23*
%TO.C,R7*%
X176987200Y-48412400D03*
X176987200Y-46587400D03*
%TD*%
D36*
%TO.C,C7*%
X181051200Y-46537800D03*
X181051200Y-48437800D03*
%TD*%
D26*
%TO.C,C4*%
X159562800Y-39532400D03*
X157487800Y-39532400D03*
%TD*%
D37*
%TO.C,D1*%
X186258200Y-40597600D03*
X186258200Y-42472600D03*
%TD*%
D27*
%TO.C,R6*%
X177217700Y-40614600D03*
X179042700Y-40614600D03*
%TD*%
D38*
%TO.C,C6*%
X184277000Y-46197600D03*
X184277000Y-44297600D03*
%TD*%
D23*
%TO.C,R4*%
X174955200Y-48412400D03*
X174955200Y-46587400D03*
%TD*%
D35*
%TO.C,R9*%
X178993800Y-46585500D03*
X178993800Y-48410500D03*
%TD*%
D26*
%TO.C,C3*%
X153716200Y-48056800D03*
X151641200Y-48056800D03*
%TD*%
D39*
%TO.C,FB1*%
X155697400Y-42468800D03*
X155697400Y-40168800D03*
%TD*%
D36*
%TO.C,C1*%
X175285400Y-42494200D03*
X175285400Y-44394200D03*
%TD*%
M02*
